<?xml version="1.0" standalone="no"?>
<!DOCTYPE svg PUBLIC "-//W3C//DTD SVG 20010904//EN"
 "http://www.w3.org/TR/2001/REC-SVG-20010904/DTD/svg10.dtd">
<svg version="1.0" xmlns="http://www.w3.org/2000/svg"
 width="880.000000pt" height="880.000000pt" viewBox="0 0 880.000000 880.000000"
 preserveAspectRatio="xMidYMid meet">
<metadata>
Created by potrace 1.11, written by Peter Selinger 2001-2013
</metadata>
<g transform="translate(0.000000,880.000000) scale(0.100000,-0.100000)"
fill="#000000" stroke="none">
<path d="M4960 6733 c-8 -3 -25 -15 -37 -26 -23 -20 -23 -25 -23 -242 0 -182
3 -224 15 -242 19 -27 75 -39 105 -23 42 22 50 66 50 263 0 211 -7 242 -56
263 -18 8 -35 14 -36 13 -2 0 -10 -3 -18 -6z"/>
<path d="M3782 6405 c-52 -44 -46 -67 73 -272 89 -152 110 -183 136 -192 44
-15 93 7 107 48 6 17 8 39 5 49 -11 31 -204 360 -217 371 -30 25 -71 24 -104
-4z"/>
<path d="M6092 6417 c-37 -17 -232 -356 -232 -402 0 -58 71 -97 125 -67 28 14
225 361 225 394 0 40 -10 57 -41 73 -33 17 -45 18 -77 2z"/>
<path d="M4773 5940 c-462 -65 -875 -324 -1129 -710 -34 -52 -75 -121 -90
-153 -26 -53 -31 -58 -54 -52 -55 13 -301 17 -382 6 -307 -44 -602 -231 -778
-493 -82 -122 -121 -210 -175 -394 -2 -6 -25 -15 -52 -19 -266 -38 -488 -238
-562 -505 -26 -91 -28 -245 -5 -340 44 -190 189 -368 369 -455 142 -69 44 -65
1712 -67 1489 -1 1509 -1 1623 20 721 131 1256 712 1322 1436 19 213 -6 434
-72 635 -151 464 -518 841 -980 1008 -173 63 -302 85 -505 89 -99 1 -208 -1
-242 -6z m186 -327 c-3 -21 3 -24 19 -12 15 12 16 12 5 -2 -7 -8 -17 -26 -23
-40 -10 -23 -10 -23 -5 4 4 18 2 26 -4 22 -6 -3 -10 -22 -9 -41 l1 -36 22 36
c25 42 39 57 30 35 -4 -10 0 -16 10 -16 9 0 14 6 11 13 -3 8 0 16 7 20 7 4 9
4 5 -1 -6 -6 17 -65 25 -65 2 0 3 9 3 19 0 11 -3 18 -6 16 -4 -2 -7 2 -7 9 0
7 6 13 13 13 7 0 11 -8 9 -18 -2 -10 -1 -21 3 -23 4 -3 9 7 10 21 3 35 12 43
12 10 0 -14 4 -29 10 -32 6 -4 7 1 3 11 -4 10 0 20 11 26 9 5 13 15 10 21 -5
8 -3 8 7 0 7 -7 17 -13 22 -13 4 0 5 6 1 13 -4 6 -4 9 1 5 4 -4 14 -3 21 3 10
8 12 5 8 -15 -2 -13 1 -28 7 -32 8 -4 9 -3 5 4 -4 6 -2 21 4 32 9 17 14 19 26
9 11 -9 14 -8 14 2 0 11 2 11 10 -1 5 -8 10 -19 10 -25 0 -5 -5 -3 -10 5 -8
13 -10 13 -10 1 0 -11 -4 -10 -16 5 -14 17 -15 17 -10 1 4 -12 2 -16 -6 -11
-6 4 -8 3 -5 -3 3 -5 23 -9 44 -8 21 1 43 -2 50 -7 14 -11 27 7 19 28 -4 9 -2
12 5 8 6 -3 9 -18 6 -32 -5 -25 -4 -25 9 -8 7 10 11 24 7 30 -3 6 0 5 7 -1 11
-10 17 -10 29 0 12 9 13 9 7 0 -4 -7 -3 -13 3 -13 5 0 17 -3 27 -7 13 -5 15
-3 9 8 -6 11 -5 12 6 2 7 -7 17 -13 22 -13 4 0 5 6 1 13 -6 9 -4 9 8 -1 12 -9
18 -10 23 -2 5 8 11 8 19 1 7 -6 17 -7 21 -3 5 4 5 2 1 -5 -3 -6 -2 -14 4 -18
6 -4 7 -11 4 -17 -4 -6 -2 -8 4 -5 5 4 8 17 5 30 l-6 22 19 -20 c10 -12 15
-15 10 -8 -6 10 -4 12 10 10 33 -6 114 -47 114 -58 0 -6 5 -7 10 -4 6 3 10 1
10 -6 0 -7 3 -9 7 -6 3 4 12 -1 20 -11 8 -9 11 -11 7 -3 -5 10 -3 12 5 7 7 -5
10 -15 6 -23 -4 -13 -3 -14 10 -3 12 10 15 10 15 0 0 -8 3 -10 7 -7 10 10 54
-34 46 -46 -3 -6 -1 -7 5 -3 12 7 52 -13 52 -27 0 -4 -5 -5 -12 -1 -7 4 -8 3
-4 -5 4 -6 12 -9 17 -5 13 7 41 -15 33 -27 -3 -5 0 -8 8 -7 7 2 12 -4 10 -12
-2 -8 0 -12 3 -8 12 12 127 -112 121 -128 -3 -8 -2 -13 3 -10 13 8 34 -21 25
-35 -4 -7 -3 -9 3 -6 5 3 20 -8 33 -26 20 -26 20 -29 4 -17 -10 8 -5 -1 13
-18 20 -21 30 -41 28 -53 -2 -11 0 -17 4 -15 11 7 35 -40 27 -52 -3 -6 -1 -14
5 -18 8 -5 9 -3 4 7 -6 11 -5 12 5 2 11 -10 11 -15 0 -28 -11 -13 -10 -14 5
-9 13 5 16 4 11 -4 -4 -7 -2 -12 6 -12 11 0 10 -2 0 -9 -11 -7 -11 -9 2 -14 9
-4 13 -13 10 -22 -3 -8 -1 -15 6 -15 6 0 9 -4 5 -9 -3 -5 -1 -12 4 -16 6 -3 7
-13 4 -22 -5 -12 -3 -14 8 -8 11 7 11 5 -1 -10 -12 -15 -12 -17 -1 -10 11 6
13 4 8 -8 -3 -10 -2 -17 3 -17 6 0 9 -3 8 -7 -1 -5 4 -26 10 -47 9 -31 9 -43
-1 -55 -8 -9 -8 -12 -1 -8 16 9 20 -15 19 -100 -1 -39 2 -70 7 -67 4 3 3 -7
-2 -21 -13 -35 -13 -48 3 -39 9 6 9 4 1 -7 -6 -8 -10 -22 -9 -32 2 -9 -1 -15
-5 -12 -5 3 -7 14 -5 24 2 10 -3 18 -10 18 -8 0 -11 -5 -7 -11 16 -26 24 -118
9 -109 -6 3 -8 -9 -5 -30 2 -20 0 -33 -4 -30 -5 2 -8 22 -6 43 1 21 5 37 8 35
15 -9 8 44 -8 56 -14 11 -15 11 -4 -1 13 -15 17 -44 4 -36 -8 4 -12 -22 -12
-73 0 -13 6 -31 13 -39 10 -13 9 -14 -2 -7 -11 6 -13 4 -8 -9 4 -9 3 -15 -2
-12 -11 7 -42 -55 -34 -69 4 -5 2 -6 -2 -2 -5 4 -17 -12 -26 -35 -13 -33 -14
-47 -5 -58 10 -13 9 -13 -6 -1 -21 15 -24 2 -5 -18 10 -11 9 -13 -1 -7 -12 7
-21 -6 -26 -38 -1 -8 -10 -23 -19 -34 -9 -10 -14 -22 -10 -27 5 -4 2 -5 -5 -1
-16 9 -34 -34 -20 -51 6 -7 5 -14 -3 -19 -7 -4 -9 -3 -5 4 3 6 2 13 -3 16 -13
8 -21 -20 -9 -32 6 -6 6 -12 -1 -17 -6 -3 -10 -3 -9 2 2 4 -1 9 -7 10 -5 1 -9
-6 -9 -16 1 -14 -4 -18 -18 -16 -12 3 -18 0 -15 -8 3 -7 10 -11 17 -9 11 3 11
0 1 -12 -7 -8 -10 -21 -6 -28 4 -7 -1 -4 -10 7 -16 19 -16 19 -12 -12 4 -23 0
-36 -14 -49 -10 -9 -16 -21 -13 -26 3 -4 0 -7 -8 -6 -7 2 -12 -3 -10 -10 1 -6
-4 -11 -10 -10 -7 2 -12 -3 -10 -10 1 -6 -4 -11 -10 -10 -7 2 -12 -3 -10 -10
1 -8 -2 -11 -7 -8 -10 7 -47 -44 -43 -58 2 -5 -4 -4 -12 4 -14 11 -16 9 -17
-11 -1 -17 -3 -19 -6 -7 -5 19 32 74 39 61 3 -5 3 -2 1 5 -1 8 2 10 9 6 7 -4
8 -3 4 5 -4 6 -11 9 -16 6 -5 -3 -14 3 -19 12 -9 14 -10 11 -6 -16 5 -27 3
-32 -7 -23 -10 8 -14 2 -15 -30 -2 -23 3 -48 10 -57 10 -12 9 -13 -3 -6 -25
15 -42 15 -36 -1 4 -10 2 -12 -6 -8 -8 5 -9 1 -4 -12 5 -14 4 -16 -4 -8 -9 9
-9 17 0 34 9 17 9 25 0 34 -8 8 -9 6 -4 -9 7 -17 6 -18 -8 -7 -11 9 -18 10
-23 2 -3 -6 -10 -8 -15 -5 -9 6 -8 -14 2 -30 4 -6 3 -17 -2 -25 -5 -9 -4 -20
3 -30 10 -13 10 -13 -4 -2 -10 7 -15 21 -12 31 6 22 -12 37 -23 20 -5 -8 -3
-9 6 -4 10 6 12 3 8 -11 -12 -43 -13 -49 -3 -47 6 1 11 -7 11 -17 0 -10 -4
-17 -7 -14 -4 2 -10 0 -14 -6 -4 -6 -12 -7 -18 -3 -17 10 -37 13 -37 4 0 -4 6
-13 13 -20 10 -11 9 -12 -3 -5 -29 16 -40 13 -36 -11 4 -24 -7 -27 -33 -11
-11 7 -13 5 -8 -10 7 -18 7 -18 -7 -1 -8 11 -12 26 -9 34 4 10 8 11 13 3 5 -8
9 -7 13 4 4 9 14 13 27 11 11 -2 20 0 20 6 0 12 -37 12 -45 -1 -4 -6 -11 -7
-17 -4 -6 4 -5 10 3 15 10 6 10 9 2 9 -6 0 -15 -5 -18 -10 -4 -6 -11 -7 -17
-4 -6 4 -8 2 -4 -4 3 -6 2 -13 -4 -17 -5 -3 -10 2 -11 12 0 14 -2 13 -10 -6
-8 -20 -11 -22 -27 -10 -16 13 -16 12 1 -7 21 -25 11 -40 -12 -16 -9 10 -13
13 -8 8 16 -21 6 -28 -15 -10 l-23 19 18 -22 c11 -12 16 -26 13 -32 -4 -5 -2
-12 4 -16 6 -3 10 4 11 17 0 13 3 17 6 10 3 -7 2 -20 -1 -28 -5 -13 -9 -14
-21 -4 -12 10 -15 9 -16 -6 0 -18 -1 -18 -9 1 -6 14 -9 16 -10 5 -2 -8 -2 -19
-1 -24 1 -5 -5 -4 -13 4 -15 12 -21 7 -16 -15 1 -5 -2 -7 -6 -3 -4 5 -14 -2
-22 -14 l-15 -21 -18 22 c-12 15 -19 17 -23 9 -3 -8 -5 -7 -3 2 1 9 -2 18 -8
20 -5 3 -10 -4 -10 -15 0 -11 -7 -20 -15 -20 -8 -1 -14 -7 -12 -15 3 -11 -1
-10 -16 3 -22 20 -37 11 -20 -12 8 -10 4 -9 -10 3 -12 11 -23 16 -23 13 -1 -4
-2 -11 -3 -16 0 -5 -5 -13 -10 -18 -5 -4 -6 -3 -2 4 3 6 2 14 -4 18 -9 6 -14
-8 -11 -28 1 -5 -3 -6 -8 -2 -6 3 -7 13 -4 23 6 14 4 15 -8 5 -8 -6 -18 -12
-24 -12 -5 -1 -11 -5 -11 -11 -1 -5 -3 -13 -4 -17 -1 -5 -2 -12 -1 -16 1 -5
-3 -6 -9 -2 -8 5 -8 11 0 20 7 9 6 16 -7 26 -15 12 -16 12 -10 -3 3 -10 2 -20
-4 -23 -5 -4 -9 -3 -8 2 3 20 -2 30 -16 30 -16 0 -19 -9 -8 -21 4 -3 8 -14 9
-22 1 -9 -1 -13 -4 -9 -4 4 -7 10 -8 13 -2 20 -17 41 -25 36 -5 -3 -12 2 -15
11 -5 12 -9 13 -14 5 -4 -7 -7 -1 -7 14 0 24 1 25 13 9 11 -15 13 -16 18 -3
12 35 10 74 -3 65 -5 -3 -8 -18 -5 -33 3 -23 2 -24 -7 -9 -5 9 -15 14 -21 11
-6 -4 -8 -2 -4 4 3 6 2 13 -3 16 -5 3 -11 -1 -15 -9 -3 -8 -1 -17 4 -20 14 -9
8 -43 -7 -38 -9 3 -11 0 -7 -10 3 -8 1 -18 -5 -22 -6 -3 -9 0 -5 8 6 16 -31
18 -55 3 -9 -6 -12 -5 -8 1 4 6 0 16 -8 23 -8 7 -15 9 -15 5 0 -5 -9 0 -20 10
-15 13 -17 21 -9 31 6 7 7 19 3 26 -4 7 -4 10 1 6 4 -4 15 -2 23 5 13 10 14 9
7 -2 -5 -9 -4 -12 3 -7 6 4 9 13 5 21 -3 8 0 15 7 15 6 0 9 -4 5 -9 -3 -5 0
-13 6 -17 7 -4 9 -3 6 2 -3 6 5 10 18 10 13 0 22 -3 20 -7 -3 -3 9 -5 25 -4
19 2 28 -1 24 -9 -3 -6 5 0 17 14 16 17 20 20 16 7 -4 -11 -3 -16 3 -12 6 3
13 -2 17 -11 6 -16 7 -16 14 2 7 18 8 18 9 -1 1 -20 2 -20 9 -1 7 19 8 19 13
-2 4 -12 2 -20 -3 -16 -5 3 -12 -2 -15 -11 -6 -13 -9 -14 -16 -3 -5 8 -8 1 -6
-23 1 -21 7 -36 14 -36 7 0 10 5 7 10 -3 6 -2 7 4 4 6 -4 8 3 5 18 -2 14 0 25
6 25 6 0 9 -9 7 -20 -4 -22 10 -36 20 -20 4 6 11 7 17 4 7 -5 8 -2 3 6 -6 9
-4 11 5 5 8 -5 11 -4 6 3 -3 6 1 9 11 7 10 -2 18 -4 18 -5 0 -1 12 -3 28 -4
15 -2 27 2 27 8 0 6 5 4 10 -4 9 -13 10 -13 10 0 0 13 2 13 11 0 9 -13 10 -13
6 2 -4 11 0 15 11 13 24 -4 42 13 36 33 -5 14 -2 13 10 -2 9 -11 16 -15 16 -9
0 6 -7 16 -15 23 -11 9 -12 16 -5 25 8 9 8 15 0 20 -6 4 -10 3 -9 -2 4 -21 -2
-24 -18 -12 -17 13 -17 13 -1 -6 12 -14 14 -25 8 -35 -9 -14 -11 -13 -14 9 0
5 -5 13 -9 18 -5 4 -7 2 -5 -6 2 -7 -6 -15 -18 -17 -22 -4 -26 18 -9 46 7 13
6 13 -7 2 -10 -8 -14 -20 -11 -30 6 -15 5 -16 -13 -2 -10 8 -16 10 -12 6 4 -5
2 -16 -5 -24 -6 -9 -7 -13 -2 -10 6 4 16 -2 23 -13 14 -21 3 -26 -17 -6 -10 8
-12 8 -7 0 3 -6 2 -14 -4 -18 -5 -3 -10 -1 -10 4 0 6 -9 11 -20 11 -22 0 -46
35 -30 45 5 3 10 -1 10 -9 0 -8 4 -17 8 -20 14 -8 2 78 -13 91 -4 4 -5 3 -2
-3 10 -17 -18 -25 -34 -11 -8 7 -3 0 9 -14 14 -17 19 -29 13 -33 -5 -4 -7 -14
-4 -23 5 -11 3 -14 -6 -9 -7 5 -11 16 -8 27 3 10 -3 25 -13 34 -15 13 -18 29
-11 53 1 1 1 5 2 10 0 4 6 14 12 22 10 13 10 13 -5 1 -10 -7 -16 -17 -13 -21
3 -5 1 -11 -5 -15 -6 -4 -8 -10 -5 -14 2 -5 -4 -16 -15 -26 -11 -10 -20 -13
-20 -7 0 6 5 14 10 17 6 3 10 12 10 18 0 7 -12 -6 -26 -28 -17 -26 -24 -32
-21 -18 3 13 1 25 -3 28 -5 3 -7 14 -5 25 2 11 0 22 -4 24 -9 6 -8 -40 1 -49
9 -9 -3 -46 -13 -39 -5 3 -7 10 -4 15 4 5 1 17 -5 26 -9 15 -10 14 -4 -7 6
-23 5 -24 -10 -11 -9 8 -16 10 -14 4 2 -6 -1 -11 -7 -12 -5 0 -9 9 -9 20 1 18
0 18 -16 4 -22 -20 -36 -19 -19 1 7 9 14 26 15 37 2 12 0 16 -2 9 -3 -6 -11
-9 -17 -5 -8 5 -8 2 0 -9 11 -12 9 -18 -6 -32 -12 -11 -17 -25 -13 -34 5 -15
4 -15 -12 -3 -15 12 -17 12 -14 0 2 -8 -3 -13 -12 -11 -12 3 -12 1 -3 -9 9 -9
9 -16 0 -30 -9 -14 -7 -22 8 -39 10 -11 15 -23 12 -27 -4 -3 -7 -1 -7 5 0 7
-5 11 -11 10 -6 -2 -13 8 -15 22 -7 37 -23 48 -20 14 1 -16 5 -34 9 -41 4 -6
3 -14 -3 -18 -6 -4 -7 -12 -4 -18 5 -8 3 -8 -6 0 -11 10 -19 9 -38 -10 -13
-12 -22 -17 -20 -12 2 6 -1 10 -7 10 -5 0 -9 -4 -7 -8 1 -5 -2 -6 -8 -2 -6 3
-8 10 -5 15 3 5 1 11 -4 14 -16 10 -23 -14 -10 -32 12 -16 12 -16 -6 0 -14 13
-16 20 -7 31 7 8 8 17 4 21 -4 4 0 6 8 4 9 -2 14 3 11 12 -2 8 -4 20 -5 27 -1
7 -6 16 -11 20 -4 4 -5 2 -1 -4 4 -8 1 -13 -8 -13 -8 0 -18 -5 -22 -12 -5 -8
-2 -9 9 -5 9 3 19 1 23 -5 4 -7 3 -8 -4 -4 -10 6 -16 -4 -14 -25 1 -3 -6 -6
-13 -6 -11 0 -12 4 -4 13 8 9 5 11 -10 7 -11 -3 -20 -8 -19 -12 0 -3 -1 -9 -2
-13 -4 -13 -7 -27 -9 -39 0 -5 -5 -7 -11 -4 -5 3 -7 0 -4 -8 3 -8 0 -18 -7
-23 -8 -4 -10 -3 -5 4 5 8 2 10 -8 6 -9 -3 -13 -11 -9 -18 3 -6 -4 -2 -16 8
-16 15 -20 16 -16 4 5 -11 0 -14 -22 -12 -15 1 -28 3 -28 4 0 1 -8 3 -18 5 -9
2 -15 -1 -12 -5 3 -5 1 -11 -5 -15 -5 -3 -11 2 -11 12 -1 17 -2 17 -6 0 -4
-16 -6 -15 -25 5 -11 13 -17 18 -14 12 7 -15 -32 -26 -41 -12 -3 6 -1 8 5 4 6
-3 13 -2 16 2 3 5 -15 8 -39 7 -25 -2 -43 1 -40 5 3 5 1 12 -5 15 -6 4 -9 1
-8 -6 2 -6 -9 -12 -24 -13 -15 -1 -25 0 -23 3 2 2 -5 15 -16 29 -18 24 -27 26
-88 27 -57 1 -68 -2 -64 -15 4 -12 2 -12 -9 2 -13 15 -15 15 -27 0 -11 -16
-12 -15 -7 1 5 16 2 15 -27 -5 -17 -13 -34 -23 -37 -23 -3 0 -4 -4 -2 -9 2 -5
-4 -4 -12 4 -9 7 -16 9 -16 5 0 -4 -6 -2 -13 4 -8 6 -18 7 -22 3 -5 -4 -5 -2
-2 5 4 6 2 22 -3 35 -10 22 -10 22 -6 1 2 -13 -3 -28 -13 -35 -14 -11 -14 -11
-5 2 11 14 4 55 -7 48 -3 -2 -14 4 -24 12 -11 9 -16 10 -11 3 4 -7 5 -13 2
-13 -2 0 -12 -3 -22 -7 -11 -4 -15 -3 -10 5 3 6 1 14 -6 18 -7 4 -10 4 -6 -1
4 -4 4 -13 -1 -19 -5 -6 -5 -20 0 -31 6 -17 8 -17 8 -2 1 15 7 19 27 16 4 0
11 5 15 13 7 10 9 10 9 -2 0 -13 1 -13 10 0 8 12 9 10 7 -7 -2 -12 -7 -26 -11
-30 -4 -5 -7 -3 -6 2 5 24 -1 27 -15 9 -15 -19 -15 -19 -9 1 5 17 2 16 -14 -5
-13 -16 -31 -25 -49 -25 -15 0 -34 -4 -42 -9 -10 -6 -12 -5 -7 2 4 7 2 12 -3
12 -6 0 -11 -6 -12 -12 0 -10 -2 -10 -6 0 -3 9 -9 10 -17 3 -9 -8 -13 -7 -13
3 0 8 8 13 18 11 10 -2 21 1 25 7 4 7 9 6 14 -2 5 -9 9 -8 13 3 4 10 -2 13
-18 13 -13 -1 -27 -5 -31 -9 -4 -4 -13 -2 -20 3 -9 8 -12 3 -10 -24 2 -40 -13
-34 -16 6 -2 19 -6 24 -14 18 -6 -6 -14 -7 -18 -3 -4 4 -4 -1 0 -12 7 -17 5
-18 -7 -8 -13 10 -16 10 -16 -2 0 -8 4 -12 8 -9 4 2 11 -1 15 -8 6 -9 10 -5
15 12 6 23 7 23 8 3 1 -12 -7 -28 -16 -35 -10 -7 -18 -24 -18 -38 0 -24 -3
-25 -48 -22 -27 1 -46 -1 -44 -5 3 -5 -10 -8 -29 -8 -21 -1 -33 4 -30 11 2 6
-2 11 -10 11 -7 0 -11 -4 -8 -9 3 -4 -2 -8 -11 -8 -9 0 -13 4 -10 10 3 6 -1 7
-9 4 -9 -3 -14 -10 -11 -14 7 -11 -22 -6 -32 5 -4 4 -2 5 6 0 9 -5 12 -4 7 3
-4 6 -13 9 -21 6 -8 -4 -12 -11 -8 -17 4 -6 1 -7 -8 -1 -8 5 -17 9 -21 9 -3 0
-10 4 -15 9 -4 5 -3 7 3 3 6 -3 11 0 11 8 0 8 -5 11 -11 7 -13 -8 -18 -9 -47
-11 -13 -1 -18 -5 -13 -13 6 -10 5 -10 -7 -1 -8 6 -27 10 -42 9 -15 -2 -31 2
-37 9 -6 7 -24 11 -40 10 -17 -1 -33 1 -36 6 -3 5 -9 7 -14 4 -5 -3 -11 -1
-15 4 -3 6 3 8 15 6 11 -2 23 1 26 7 4 6 3 8 -4 4 -6 -3 -18 2 -28 11 -20 20
-23 20 -35 1 -7 -10 -9 -10 -9 0 0 7 -5 10 -10 7 -6 -4 -7 -11 -4 -17 4 -7 2
-8 -4 -4 -7 4 -12 1 -13 -6 0 -10 -2 -11 -6 0 -4 10 -8 10 -21 0 -13 -11 -15
-11 -10 3 4 9 1 16 -8 16 -7 0 -10 -5 -7 -10 3 -6 1 -7 -5 -3 -7 4 -12 15 -12
24 0 10 -3 13 -8 7 -4 -5 -14 -11 -22 -11 -8 -1 -22 -3 -30 -5 -8 -2 -14 2
-12 9 1 8 -2 11 -8 7 -8 -5 -7 -12 2 -23 11 -13 11 -15 -3 -10 -9 4 -16 1 -16
-8 0 -7 5 -10 10 -7 5 3 14 -1 19 -8 8 -11 9 -10 4 3 -3 11 2 21 13 27 13 7
18 6 18 -4 0 -7 -7 -11 -15 -7 -10 3 -13 1 -8 -6 10 -17 -3 -35 -17 -24 -11 7
-32 9 -39 2 -10 -8 -64 -5 -70 4 -4 6 -11 11 -16 11 -5 0 -16 8 -26 18 -10 9
-21 15 -26 12 -4 -3 -13 2 -20 10 -10 12 -16 13 -26 4 -8 -6 -11 -15 -8 -20 3
-5 2 -9 -3 -8 -21 4 -34 -2 -27 -13 4 -6 3 -8 -4 -4 -6 3 -14 2 -17 -4 -5 -8
-12 -7 -23 2 -9 7 -13 8 -10 3 4 -6 3 -17 -3 -25 -5 -8 -9 -10 -9 -4 0 14 -42
13 -52 -1 -4 -5 -8 1 -8 15 0 20 -2 22 -10 10 -8 -12 -10 -12 -10 -1 0 8 -3
11 -6 8 -4 -4 -1 -15 7 -24 7 -10 9 -15 5 -11 -5 4 -15 3 -23 -4 -11 -9 -12
-7 -7 8 6 15 4 17 -6 7 -15 -14 -42 -6 -33 11 4 8 3 8 -6 0 -14 -13 -51 -7
-51 7 0 13 14 11 30 -3 12 -11 12 -10 1 4 -17 23 -53 20 -40 -3 6 -12 5 -20
-3 -25 -6 -4 -8 -3 -4 4 3 6 2 13 -3 16 -5 4 -12 2 -16 -4 -4 -6 -15 -4 -29 5
-13 9 -30 14 -37 13 -9 -2 -14 5 -13 20 1 20 -1 21 -16 7 -14 -13 -19 -13 -28
-2 -9 10 -8 17 1 27 6 8 2 6 -10 -4 -24 -20 -32 -10 -10 14 10 12 9 12 -4 2
-9 -6 -19 -9 -23 -5 -4 4 -4 -1 -1 -12 4 -12 3 -15 -2 -9 -4 6 -16 10 -26 8
-9 -1 -22 6 -28 17 -5 11 -14 17 -19 14 -4 -3 -7 6 -5 20 1 14 -2 28 -8 32 -6
3 -7 2 -4 -3 3 -6 2 -16 -4 -24 -7 -12 -9 -9 -10 10 -1 14 -1 29 0 33 1 5 -3
6 -8 2 -6 -3 -7 -13 -4 -23 4 -12 0 -10 -15 6 -11 13 -22 22 -25 20 -2 -2 -22
14 -45 34 -25 23 -36 39 -29 42 7 4 1 4 -11 2 -23 -5 -24 -4 -5 16 10 12 12
18 6 14 -22 -12 -34 3 -21 27 10 21 10 21 -7 7 -17 -14 -17 -14 -7 7 9 16 9
24 0 29 -6 4 -8 3 -4 -4 3 -6 2 -13 -3 -16 -11 -7 -9 13 3 32 4 7 5 16 2 19
-3 4 -6 0 -7 -8 0 -8 -4 -4 -10 9 -6 16 -5 31 3 45 10 19 9 20 -3 10 -12 -10
-14 -7 -13 15 0 14 6 28 12 30 7 2 12 16 13 30 0 24 1 25 8 7 5 -11 6 -24 3
-30 -3 -5 2 -4 12 4 12 10 16 24 14 43 -5 34 -1 36 12 6 l9 -23 2 23 c1 21 4
33 9 50 1 4 1 16 1 28 -1 11 6 29 16 40 10 11 14 15 10 8 -4 -7 -3 -15 3 -19
6 -4 9 -3 8 2 -1 4 4 18 11 31 12 23 13 23 34 6 12 -10 16 -12 10 -4 -7 8 -13
21 -13 30 0 12 2 12 9 2 4 -8 11 -13 15 -13 19 3 26 0 26 -10 0 -8 -6 -7 -18
2 -16 13 -16 12 -3 -4 14 -18 16 -18 33 5 l18 23 -10 -27 c-5 -16 -8 -28 -5
-28 2 0 11 12 19 28 8 15 15 21 16 14 0 -7 5 -10 10 -7 6 4 7 12 3 18 -5 8 -2
8 9 0 12 -11 18 -10 32 6 10 11 25 17 36 14 19 -5 45 28 32 42 -4 3 0 5 8 3 8
-1 14 3 15 10 0 6 5 11 10 10 6 -2 9 -6 7 -10 -3 -10 12 -10 21 -1 4 3 2 12
-4 19 -7 8 -7 14 1 19 6 3 7 11 4 17 -4 7 -2 8 5 4 9 -6 9 -11 1 -21 -7 -8 -7
-15 -1 -19 9 -6 27 30 23 45 -1 4 9 4 21 1 18 -5 19 -7 4 -10 -9 -2 -17 -7
-17 -12 0 -5 8 -6 17 -3 15 6 16 5 3 -9 -11 -11 -17 -13 -23 -4 -4 6 -5 -2 -1
-18 5 -21 4 -27 -5 -22 -6 4 -8 12 -5 18 4 7 2 8 -5 4 -6 -4 -8 -12 -5 -18 4
-6 2 -8 -4 -5 -6 4 -9 0 -8 -10 2 -12 1 -13 -2 -3 -4 12 -6 11 -13 -5 -7 -18
-8 -18 -8 4 -1 27 -16 20 -16 -7 0 -9 -6 -16 -13 -14 -8 1 -11 -2 -6 -9 4 -7
3 -9 -3 -6 -5 3 -21 0 -36 -8 -14 -7 -28 -10 -32 -7 -3 4 -3 -1 0 -10 4 -9 1
-19 -6 -24 -8 -5 -11 -2 -7 8 4 8 0 15 -7 15 -11 0 -11 -5 -3 -21 11 -20 11
-20 28 2 10 11 21 18 25 14 5 -4 5 -1 1 6 -4 7 -1 12 9 12 9 0 14 -4 11 -8 -3
-5 1 -9 9 -9 8 0 13 3 12 6 -1 3 3 6 8 6 6 0 9 -4 7 -9 -2 -5 4 -4 12 3 9 7
14 18 13 24 -1 6 7 11 18 11 12 0 19 -5 17 -14 -2 -8 0 -11 4 -7 11 11 14 38
3 31 -5 -3 -9 1 -9 10 0 8 7 13 18 11 9 -1 15 -9 14 -16 -2 -8 0 -10 5 -6 8 8
9 12 12 40 1 8 4 8 10 -3 6 -8 7 -18 4 -24 -3 -5 -1 -6 5 -2 6 4 8 14 5 23 -4
11 -3 14 5 9 8 -5 10 -1 5 10 -5 13 -3 15 8 9 12 -7 12 -6 1 7 -8 9 -12 25
-10 35 1 10 -2 19 -7 20 -6 1 -8 -9 -7 -24 2 -14 0 -23 -5 -20 -6 4 -9 16 -8
29 1 13 -2 28 -7 35 -5 7 -5 14 2 18 6 4 9 1 8 -6 -4 -16 24 -19 34 -5 4 6 1
17 -5 25 -8 10 -8 13 -1 8 7 -4 17 0 24 8 7 8 16 12 21 9 6 -3 8 6 5 20 -3 16
0 25 7 23 6 -1 11 10 11 25 -1 15 3 25 7 22 8 -5 13 10 10 29 -1 5 4 5 10 1 9
-5 10 -2 5 12 -5 15 -4 16 5 7 9 -9 7 -18 -9 -41 -12 -16 -20 -39 -17 -51 3
-15 0 -19 -8 -15 -7 4 -9 4 -5 0 6 -7 -27 -79 -55 -118 -9 -14 -9 -21 4 -33
14 -14 16 -14 16 -1 0 8 -4 13 -9 10 -4 -3 -8 2 -8 11 0 9 4 14 9 11 4 -3 19
7 32 22 13 14 16 20 7 13 -21 -16 -22 -12 -8 24 5 14 14 23 20 20 6 -4 7 1 3
11 -4 11 -2 15 4 11 6 -4 9 5 8 21 -2 29 21 85 33 78 10 -6 9 57 -2 73 -6 10
-6 12 2 7 16 -10 15 6 0 24 -11 12 -10 12 5 0 10 -7 16 -19 13 -26 -3 -7 0
-16 7 -20 7 -4 9 -4 5 1 -4 4 -3 17 3 28 8 14 8 18 0 13 -6 -4 -11 -5 -11 -2
0 2 -3 13 -6 23 -4 13 -3 14 4 5 7 -11 10 -11 15 3 4 9 3 13 -2 10 -5 -3 -12
-1 -16 5 -4 6 -11 7 -17 4 -6 -4 -9 -3 -6 2 3 5 11 28 17 52 8 29 16 40 24 35
7 -4 7 0 -2 10 -9 11 -10 17 -2 17 6 0 10 3 9 8 -2 4 3 22 11 40 11 26 16 30
28 21 11 -9 12 -9 7 4 -3 8 0 25 6 37 9 17 14 19 26 9 12 -10 13 -9 8 6 -5 13
-4 16 5 10 10 -6 11 -3 1 15 -11 20 -10 22 4 17 8 -3 18 -1 22 5 4 7 3 8 -4 4
-7 -4 -12 -3 -12 1 0 5 9 14 19 20 16 10 23 8 44 -11 24 -23 78 -29 105 -13 6
5 16 6 21 3 11 -7 69 13 101 35 20 14 35 16 72 10 52 -8 101 6 111 33 7 18 47
22 47 5 0 -6 8 -8 20 -4 15 5 25 -3 44 -34 14 -22 39 -50 55 -62 16 -12 31
-33 34 -48 4 -15 21 -36 42 -50 19 -13 35 -29 35 -35 1 -16 48 -48 55 -36 7
12 33 2 58 -23 12 -12 28 -17 43 -14 14 2 45 0 70 -5 38 -8 47 -7 58 7 11 16
14 16 28 2 9 -9 19 -13 22 -9 4 3 4 -1 0 -11 -3 -9 -2 -23 4 -30 11 -14 12
-48 1 -42 -3 3 -13 -2 -20 -11 -10 -13 -10 -17 2 -25 21 -13 69 -11 70 4 0 10
2 10 6 0 6 -17 22 -16 56 2 29 15 41 7 36 -26 -3 -24 1 -39 9 -39 4 0 9 11 10
25 3 47 5 54 16 52 6 -1 13 -4 16 -7 3 -3 14 -10 25 -16 11 -6 27 -23 35 -38
13 -24 13 -28 0 -36 -13 -9 -7 -14 12 -11 4 0 5 -6 2 -14 -7 -17 21 -21 31 -5
9 14 33 1 31 -17 -1 -19 14 -26 33 -14 8 6 10 14 5 22 -13 21 -14 39 -2 39 7
0 6 5 -1 14 -9 11 -7 13 11 12 14 -1 22 4 20 12 -1 8 2 11 8 7 6 -3 7 -11 4
-17 -4 -6 1 -17 11 -24 18 -13 18 -14 -1 -36 -10 -13 -15 -20 -10 -16 5 4 15
3 23 -3 8 -8 13 -8 13 -1 0 6 -5 12 -12 14 -7 3 -5 7 6 11 9 4 15 3 11 -2 -3
-5 0 -13 6 -17 8 -5 10 1 7 20 -3 15 -3 24 0 22 3 -3 11 2 19 12 13 15 13 14
3 -8 -10 -23 -9 -23 16 5 14 17 23 25 20 18 -4 -7 1 -10 11 -9 10 2 19 11 20
22 3 18 2 18 -6 -1 -8 -16 -10 -17 -10 -3 -1 9 3 19 9 23 17 11 -10 54 -32 50
-16 -4 -18 -2 -8 10 15 18 -1 20 -20 3 -12 -11 -12 -10 -3 2 6 8 9 23 8 32 -2
10 1 20 5 23 5 3 7 -4 5 -15 -2 -11 0 -20 6 -20 5 0 9 5 9 11 0 6 9 1 21 -12
11 -13 18 -18 14 -11 -3 6 -1 12 4 12 6 0 11 -6 11 -12 0 -9 4 -8 11 2 8 12 9
9 4 -10 -5 -20 -4 -22 5 -10 10 13 11 12 6 -3 -3 -11 -2 -16 4 -12 6 4 7 -2 2
-17 -5 -13 -7 -29 -6 -35 1 -7 2 -18 3 -24 0 -5 6 -7 12 -4 6 4 8 14 5 22 -3
8 -1 11 5 8 5 -4 7 -14 4 -24 -4 -13 1 -17 19 -17 25 0 28 14 8 38 -6 8 -9 18
-5 22 12 11 12 36 1 43 -7 3 -8 1 -4 -5 8 -14 4 -15 -18 -6 -9 3 -16 10 -16
16 0 5 5 6 12 2 7 -4 8 -3 4 5 -4 6 -12 8 -18 5 -8 -5 -9 -1 -5 10 4 10 3 15
-3 11 -6 -3 -10 0 -10 7 0 8 -3 9 -8 3 -10 -14 -44 -15 -39 -1 3 6 8 10 13 9
5 -1 10 10 10 23 2 20 -1 23 -12 13 -8 -6 -12 -15 -9 -18 2 -4 -2 -8 -9 -8 -7
0 -13 6 -13 13 0 7 5 12 11 11 15 -3 8 34 -10 54 -12 14 -11 18 8 35 l23 19
-18 -21 c-16 -20 -17 -22 0 -35 15 -12 16 -12 11 2 -4 9 -2 21 4 27 6 6 8 18
4 28 -6 15 -10 14 -39 -12 -17 -16 -24 -20 -14 -8 13 16 14 23 4 34 -10 12 -9
12 5 1 14 -10 18 -9 28 8 6 12 8 21 5 21 -12 0 -20 -6 -17 -13 1 -5 -2 -5 -8
-2 -8 5 -6 12 4 24 13 14 13 20 3 31 -9 11 -8 11 7 0 18 -14 18 -13 12 10 -6
19 -5 21 3 10 6 -8 11 -10 12 -5 1 6 2 15 4 20 1 6 3 18 3 27 1 11 7 15 17 12
14 -6 13 -8 -2 -20 -15 -10 -16 -15 -5 -26 11 -11 12 -10 7 5 -4 9 -3 17 2 17
5 0 8 -24 7 -52 -1 -29 -3 -53 -4 -53 -1 0 -3 -20 -5 -45 -2 -31 0 -39 6 -25
6 16 7 14 5 -10 -1 -16 -8 -40 -14 -52 -8 -15 -9 -24 -2 -28 6 -4 10 -3 9 2
-5 28 2 34 19 16 9 -10 14 -14 10 -9 -15 19 -8 28 9 15 10 -8 14 -9 10 -2 -4
6 -3 14 3 18 5 3 10 14 9 23 0 14 -2 13 -9 -3 -5 -11 -9 -14 -9 -6 -1 8 -7 11
-17 7 -12 -5 -15 -2 -10 10 3 8 6 20 6 25 0 6 5 7 10 4 6 -4 7 -12 3 -18 -5
-8 -2 -8 9 0 8 7 17 10 21 7 3 -3 4 2 2 13 -2 10 -4 22 -4 27 -1 6 -8 1 -17
-10 -15 -19 -16 -19 -8 1 11 31 12 95 2 101 -5 3 -3 13 4 22 10 12 10 14 1 8
-7 -4 -13 -3 -13 2 0 16 13 22 26 11 9 -7 14 -6 20 3 4 7 4 10 -1 6 -4 -4 -14
-3 -21 3 -8 7 -14 7 -19 -1 -3 -5 -11 -10 -17 -10 -6 0 -1 12 13 27 13 15 17
22 8 15 -16 -12 -29 -7 -29 10 0 5 5 6 11 2 6 -3 4 5 -6 19 -10 16 -12 27 -6
31 6 4 7 14 4 23 -5 12 -3 14 8 8 10 -6 9 -3 -2 11 -9 10 -15 28 -13 38 1 11
0 24 -3 30 -7 10 -12 44 -14 79 0 9 -5 17 -10 17 -6 0 -7 -5 -3 -12 4 -7 3 -8
-4 -4 -8 5 -12 -1 -12 -16 0 -15 3 -19 8 -11 5 7 8 -6 7 -30 0 -23 -5 -49 -10
-57 -8 -13 -7 -13 8 -1 16 13 20 11 15 -6 -2 -5 -6 -7 -10 -6 -10 4 -3 -39 11
-65 7 -13 10 -26 7 -30 -3 -3 -6 1 -6 8 0 7 -3 11 -6 8 -3 -4 2 -18 11 -32 11
-16 13 -26 6 -26 -6 0 -11 8 -11 18 0 9 -9 -1 -20 -23 -11 -22 -17 -29 -13
-15 5 21 4 23 -9 12 -13 -10 -18 -9 -28 3 -9 11 -10 19 -3 26 8 8 11 7 10 -4
-1 -9 3 -15 8 -14 9 2 10 14 2 78 -1 15 -9 35 -17 45 -14 18 -14 18 3 5 10 -8
17 -9 17 -3 0 6 -5 14 -11 18 -8 4 -8 9 0 17 16 16 14 32 -2 18 -10 -8 -14 -7
-14 4 0 7 3 13 6 12 3 -1 6 2 6 8 0 5 -3 9 -6 8 -3 -1 -6 4 -6 12 0 8 5 11 10
8 6 -4 8 0 4 10 -3 9 -2 19 3 22 6 4 10 11 10 17 0 7 -5 6 -14 -1 -10 -8 -16
-9 -21 -1 -4 6 -1 9 7 8 7 -2 12 4 10 12 -1 10 4 7 17 -7 10 -12 21 -19 25
-16 10 10 -36 53 -48 46 -6 -4 -6 0 1 9 7 8 11 18 8 21 -3 4 -2 4 3 1 4 -3 7
-11 7 -17 0 -7 9 -11 19 -9 23 4 40 -19 23 -31 -8 -5 -5 -7 8 -5 12 2 19 -2
18 -9 -2 -7 2 -12 9 -10 7 1 12 -3 13 -10 0 -6 3 -14 7 -18 3 -4 5 0 4 9 -1 8
-5 19 -9 22 -4 4 1 17 10 28 12 14 13 17 3 10 -20 -14 -42 -12 -48 5 -3 8 0
11 7 7 6 -4 10 -3 9 2 -2 6 2 10 7 10 6 0 9 -5 7 -11 -2 -7 0 -8 4 -4 16 16
12 35 -7 32 -11 -2 -19 2 -19 10 0 8 8 12 18 10 11 -2 19 3 19 11 0 11 -3 11
-16 1 -12 -10 -14 -9 -8 5 3 10 1 20 -6 24 -7 4 -9 4 -5 0 3 -4 0 -22 -7 -41
-8 -18 -11 -36 -7 -41 4 -5 0 -3 -9 4 -9 6 -18 10 -21 7 -2 -3 -2 10 1 28 l5
32 6 -30 c5 -27 6 -28 12 -8 4 13 0 27 -8 34 -8 6 -12 15 -9 19 6 9 -36 7 -52
-3 -8 -5 -11 -1 -8 13 2 11 0 18 -6 15 -5 -4 -9 -12 -9 -20 0 -8 -4 -16 -9
-19 -4 -3 -7 5 -6 18 3 20 -1 23 -31 21 -24 -1 -35 3 -39 16 -3 10 -13 19 -21
21 -8 2 1 8 20 14 25 8 33 8 29 0 -4 -6 3 -3 14 7 11 9 23 14 26 10 4 -3 7 -1
7 5 0 6 9 9 20 7 11 -2 23 1 26 7 5 7 2 8 -6 3 -9 -5 -11 -4 -6 4 5 7 12 9 19
3 18 -13 40 -9 44 8 4 13 3 13 -6 0 -6 -8 -11 -10 -11 -4 0 16 10 23 26 17 8
-3 11 -9 8 -15 -3 -5 3 -4 15 4 25 15 27 25 6 25 -8 0 -11 -5 -8 -10 3 -6 1
-7 -6 -3 -8 6 -9 12 -2 20 6 7 7 16 3 20 -4 4 0 6 8 4 8 -1 14 2 13 8 -1 6 8
11 20 10 21 -2 37 10 37 28 0 5 -8 2 -17 -5 -15 -11 -16 -11 -6 1 10 11 10 17
0 29 -11 14 -10 14 6 2 18 -14 19 -13 21 18 0 11 4 22 7 26 4 3 6 -2 5 -12 0
-10 4 -18 9 -18 6 0 9 7 9 17 -1 10 4 14 12 11 9 -3 13 0 11 8 -2 8 -2 11 1 6
5 -10 39 33 43 58 3 13 12 20 27 19 12 -1 22 4 22 12 0 7 4 15 10 19 5 3 5 -8
-2 -26 -8 -23 -13 -28 -20 -17 -7 9 -8 8 -4 -7 l6 -20 -16 20 c-16 19 -16 19
-12 -7 3 -17 1 -25 -5 -21 -6 4 -7 1 -2 -7 5 -9 4 -11 -3 -6 -8 5 -10 1 -6
-11 5 -15 4 -16 -6 -3 -10 13 -11 12 -6 -3 3 -10 2 -16 -2 -13 -4 2 -16 -2
-27 -10 -10 -8 -15 -14 -10 -14 5 0 -1 -10 -12 -22 -28 -32 -45 -67 -40 -83 3
-7 0 -19 -6 -26 -10 -11 -9 -11 4 -1 11 8 15 21 12 35 -5 22 -5 22 11 2 17
-20 17 -20 7 2 -14 27 -14 36 -1 28 6 -4 7 1 3 12 -6 17 -5 17 15 0 20 -18 26
-7 10 18 -7 12 16 48 25 38 4 -3 2 -12 -4 -19 -7 -8 -7 -14 1 -19 6 -4 10 -3
9 2 -1 4 0 11 1 16 1 4 3 13 4 20 1 6 7 11 14 9 7 -1 11 1 11 5 -4 22 2 33 14
27 6 -4 9 -4 5 1 -4 4 -3 14 3 22 9 10 15 11 26 1 8 -6 13 -7 11 -2 -4 13 28
55 36 47 4 -4 4 1 0 12 -7 18 -6 19 11 5 10 -8 16 -10 12 -3 -4 6 -3 14 3 18
5 3 10 12 10 18 0 7 -4 6 -10 -3 -8 -13 -10 -13 -10 1 0 23 11 30 27 18 10 -9
13 -8 13 0 0 7 4 9 10 6 6 -3 7 1 3 10 -5 13 -7 14 -14 3 -7 -10 -9 -11 -9 0
0 7 -4 11 -9 7 -5 -3 -12 -1 -16 5 -4 6 -11 7 -17 4 -7 -4 -8 -2 -4 5 5 8 12
9 19 3 11 -9 44 -8 53 1 3 2 7 15 9 27 5 26 15 40 15 20 0 -9 5 -7 15 6 8 10
15 15 15 9 0 -5 4 -4 9 4 11 18 8 -40 -4 -60 -4 -8 8 1 28 20 32 30 36 32 34
12 -1 -11 -6 -21 -13 -21 -6 0 -17 -7 -24 -15 -11 -13 -9 -14 14 -1 38 19 54
44 48 75 l-6 26 -7 -25 -7 -25 -2 25 -2 25 -7 -25 -7 -25 -5 26 c-5 23 -2 26
20 24 15 0 27 -8 29 -17 2 -11 11 -15 28 -12 14 3 24 0 24 -8 0 -6 7 -3 16 8
12 15 15 16 10 2 -6 -20 19 -45 29 -28 3 6 10 8 14 6 4 -3 7 10 8 27 1 30 1
30 -7 7 -5 -15 -8 -19 -9 -8 -1 9 -4 25 -7 35 -3 10 -2 14 3 8 11 -15 38 -13
39 3 2 18 4 22 9 22 3 0 4 -3 4 -7z m318 -25 c-3 -8 -6 -5 -6 6 -1 11 2 17 5
13 3 -3 4 -12 1 -19z m-460 -10 c2 -17 0 -19 -7 -8 -5 8 -6 18 -4 22 8 12 10
10 11 -14z m48 7 c6 0 14 4 18 10 6 6 7 5 5 -3 -2 -8 -8 -13 -13 -12 -5 1 -12
-7 -16 -17 -7 -17 -8 -16 -8 2 -1 16 -3 17 -11 5 -7 -12 -9 -10 -7 7 0 12 6
19 12 15 5 -4 15 -7 20 -7z m-140 -4 c3 -5 2 -12 -3 -15 -5 -3 -9 1 -9 9 0 17
3 19 12 6z m585 -1 c0 -5 -2 -10 -4 -10 -3 0 -8 5 -11 10 -3 6 -1 10 4 10 6 0
11 -4 11 -10z m-407 -53 c-9 -15 -21 4 -15 25 5 21 6 21 12 2 4 -10 5 -22 3
-27z m-166 -15 c-14 -18 -19 -9 -11 24 6 25 8 26 14 9 4 -11 3 -26 -3 -33z
m-100 -15 c0 -8 -6 -14 -14 -14 -9 0 -10 4 -2 14 6 7 12 13 14 13 1 0 2 -6 2
-13z m-56 -60 c-7 -7 -6 -17 0 -30 8 -14 8 -17 0 -13 -5 4 -17 -7 -26 -23 -8
-16 -20 -33 -27 -37 -7 -4 -3 8 8 27 19 32 22 65 5 55 -4 -3 -8 1 -8 9 0 11 4
12 14 4 11 -10 17 -6 15 12 -1 3 6 6 14 6 10 0 11 -4 5 -10z m-121 -101 c0 -2
-8 -10 -17 -17 -16 -13 -17 -12 -4 4 13 16 21 21 21 13z m-390 -326 c-14 -9
-7 -14 13 -11 10 1 9 -7 -2 -13 -4 -3 -16 2 -24 12 -15 16 -15 18 6 19 17 2
19 0 7 -7z m171 -61 c-2 -8 -4 -19 -4 -26 0 -7 -4 -10 -8 -7 -5 2 -5 12 -2 21
4 10 2 14 -4 10 -5 -3 -10 0 -10 7 0 8 7 13 16 11 9 -1 14 -9 12 -16z m-56
-129 c10 -11 16 -20 13 -20 -3 0 -13 9 -23 20 -10 11 -16 20 -13 20 3 0 13 -9
23 -20z m92 -62 c-3 -8 -6 -5 -6 6 -1 11 2 17 5 13 3 -3 4 -12 1 -19z m11 -43
c-3 -3 -9 2 -12 12 -6 14 -5 15 5 6 7 -7 10 -15 7 -18z m7 -65 c1 -11 -2 -20
-6 -20 -10 0 -20 30 -13 42 8 13 17 2 19 -22z m-68 -145 c0 -8 -4 -12 -9 -9
-5 3 -6 10 -3 15 9 13 12 11 12 -6z m89 -16 c1 -5 3 -10 4 -11 8 -9 6 -77 -3
-96 l-11 -24 -8 22 c-5 13 -4 28 0 34 5 6 8 30 7 54 -1 23 1 39 4 36 3 -3 7
-10 7 -15z m-101 -28 c3 -5 2 -12 -3 -15 -5 -3 -9 1 -9 9 0 17 3 19 12 6z
m-570 -109 c-8 -8 -25 10 -19 20 4 6 9 5 15 -3 4 -7 6 -15 4 -17z m-77 -26 c4
-18 3 -19 -13 -3 -9 10 -21 14 -27 11 -7 -4 -8 -2 -4 5 11 18 40 9 44 -13z
m651 -10 c9 -11 9 -16 -1 -22 -7 -4 -10 -4 -6 1 4 4 3 14 -3 22 -6 7 -9 13 -6
13 2 0 10 -6 16 -14z m105 -14 c3 -5 -1 -9 -9 -9 -8 0 -12 4 -9 9 3 4 7 8 9 8
2 0 6 -4 9 -8z m-356 -104 c-2 -7 3 -12 11 -10 11 2 12 0 3 -11 -9 -10 -9 -17
1 -27 10 -12 9 -12 -5 -1 -10 7 -16 17 -13 21 3 5 1 11 -5 15 -5 3 -10 1 -10
-6 0 -7 -3 -9 -6 -6 -4 4 -1 13 6 22 15 18 21 19 18 3z m362 -39 c0 -5 6 -7
13 -3 9 6 9 5 -1 -8 -10 -12 -9 -18 3 -28 8 -7 12 -17 9 -22 -4 -5 -12 1 -18
14 -7 12 -19 22 -26 20 -10 -2 -11 0 -2 11 7 8 9 17 5 20 -3 4 -1 7 5 7 7 0
12 -5 12 -11z m1960 -23 c0 -2 -8 -10 -17 -17 -16 -13 -17 -12 -4 4 13 16 21
21 21 13z m-3822 -31 c-3 -3 -9 2 -12 12 -6 14 -5 15 5 6 7 -7 10 -15 7 -18z
m-136 -294 c-4 -12 -7 -12 -10 -1 -3 9 -9 5 -18 -11 -9 -15 -13 -18 -14 -8 0
19 16 36 34 36 9 0 12 -6 8 -16z m-170 -53 c-8 -8 -9 -4 -5 13 4 13 8 18 11
10 2 -7 -1 -18 -6 -23z m55 -23 c0 -8 -4 -12 -9 -9 -5 3 -6 10 -3 15 9 13 12
11 12 -6z m-346 -139 c-6 -7 -9 -16 -6 -20 3 -3 0 -2 -6 3 -14 12 -3 45 11 36
8 -5 8 -11 1 -19z m3924 -176 c0 -15 -4 -26 -9 -22 -5 3 -6 -2 -3 -12 4 -10 3
-15 -4 -11 -5 4 -7 15 -4 25 3 10 1 21 -5 25 -8 5 -8 11 1 21 15 19 24 9 24
-26z m-211 -111 c-4 -7 -7 -20 -8 -30 -1 -11 -5 -20 -11 -21 -15 -2 -34 -31
-28 -43 4 -5 2 -6 -2 -2 -12 10 -15 38 -7 51 4 6 7 16 7 21 0 6 5 10 12 10 7
0 18 6 25 13 15 15 21 16 12 1z m-667 -34 c0 -8 -4 -12 -9 -9 -5 3 -6 10 -3
15 9 13 12 11 12 -6z m166 -3 c15 -16 14 -17 -14 -18 -31 -2 -36 5 -17 24 15
15 12 15 31 -6z m61 -8 c5 -14 4 -15 -9 -4 -17 14 -19 20 -6 20 5 0 12 -7 15
-16z m105 -40 c5 3 8 -1 7 -9 -4 -24 -17 -22 -35 5 -15 23 -15 24 1 12 9 -8
21 -11 27 -8z m57 -6 c5 4 5 3 1 -2 -13 -16 -37 -15 -37 1 0 12 3 13 13 4 8
-6 18 -7 23 -3z m-171 -19 c3 -3 -3 -13 -13 -22 -17 -15 -18 -15 -18 7 0 21
16 29 31 15z m369 -7 c3 -5 -1 -9 -9 -9 -8 0 -12 4 -9 9 3 4 7 8 9 8 2 0 6 -4
9 -8z m-626 -67 c-3 -3 -9 2 -12 12 -6 14 -5 15 5 6 7 -7 10 -15 7 -18z m-44
7 c3 -5 -1 -9 -9 -9 -8 0 -12 4 -9 9 3 4 7 8 9 8 2 0 6 -4 9 -8z m160 -1 c3
-4 -4 -17 -17 -27 -22 -19 -22 -19 -4 2 9 11 14 24 10 27 -3 4 -4 7 0 7 3 0 8
-4 11 -9z m-77 -16 c0 -8 -4 -12 -9 -9 -5 3 -6 10 -3 15 9 13 12 11 12 -6z
m89 -13 c-17 -16 -18 -16 -5 5 7 12 15 20 18 17 3 -2 -3 -12 -13 -22z m-851 7
c3 -3 -6 -5 -19 -5 -14 1 -28 4 -31 7 -3 3 6 5 19 5 14 -1 28 -4 31 -7z m141
-62 c4 -3 -4 -4 -16 -2 -12 2 -25 7 -28 10 -3 3 4 4 16 2 12 -2 24 -6 28 -10z
m-1626 -13 c0 -8 -19 -13 -24 -6 -3 5 1 9 9 9 8 0 15 -2 15 -3z"/>
<path d="M5164 5585 c-5 -11 -10 -13 -19 -5 -9 7 -16 6 -24 -4 -8 -9 -8 -16
-2 -20 5 -4 12 -2 16 4 4 6 10 8 15 5 5 -3 14 4 20 15 6 11 8 20 5 20 -3 0 -8
-7 -11 -15z"/>
<path d="M5350 5566 c0 -8 4 -17 9 -20 5 -4 7 3 4 14 -6 23 -13 26 -13 6z"/>
<path d="M5374 5568 c2 -7 11 -12 21 -10 11 2 14 -1 9 -9 -4 -8 -3 -10 5 -5
15 10 3 29 -14 22 -8 -3 -16 -1 -19 5 -2 5 -3 4 -2 -3z"/>
<path d="M5486 5572 c-4 -4 -12 -7 -18 -7 -6 0 -12 -8 -14 -18 -2 -18 -2 -18
18 0 11 10 22 17 25 15 3 -2 7 -1 9 1 3 3 1 8 -4 11 -5 3 -12 2 -16 -2z"/>
<path d="M5427 5551 c-4 -17 -3 -21 5 -13 5 5 8 16 6 23 -3 8 -7 3 -11 -10z"/>
<path d="M4972 5532 c-11 -25 -11 -25 4 -10 9 9 15 21 13 27 -2 6 -10 -2 -17
-17z"/>
<path d="M5003 5550 c2 -8 -3 -24 -12 -35 -14 -17 -14 -18 0 -7 9 6 19 10 22
7 4 -3 5 -2 2 2 -3 3 0 12 7 20 6 7 8 16 4 20 -3 3 -6 0 -6 -8 0 -12 -2 -11
-11 1 -9 13 -10 13 -6 0z"/>
<path d="M5593 5547 c0 -8 6 -14 14 -14 9 0 10 4 2 14 -6 7 -12 13 -14 13 -1
0 -2 -6 -2 -13z"/>
<path d="M4803 5514 c-9 -20 -9 -23 1 -15 9 7 16 7 26 -2 9 -8 11 -8 6 0 -3 6
-1 13 6 16 7 2 5 3 -4 2 -9 -2 -18 3 -20 11 -2 8 -8 3 -15 -12z"/>
<path d="M4687 5517 c-4 -11 -12 -15 -19 -11 -7 4 -10 4 -6 0 4 -5 3 -19 -3
-33 -5 -14 -5 -22 0 -19 5 4 12 0 15 -6 3 -7 3 -1 0 13 -3 15 -1 30 5 33 7 5
9 0 5 -11 -5 -17 -5 -17 6 0 6 10 10 25 8 35 -3 16 -4 16 -11 -1z"/>
<path d="M4693 5447 c0 -8 6 -14 14 -14 9 0 10 4 2 14 -6 7 -12 13 -14 13 -1
0 -2 -6 -2 -13z"/>
<path d="M5790 5446 c0 -2 8 -10 18 -17 15 -13 16 -12 3 4 -13 16 -21 21 -21
13z"/>
<path d="M4616 5393 c-6 -14 -5 -15 5 -6 7 7 10 15 7 18 -3 3 -9 -2 -12 -12z"/>
<path d="M6030 5221 c5 -11 15 -23 21 -27 6 -3 3 5 -6 20 -20 30 -30 35 -15 7z"/>
<path d="M4314 5148 c-10 -12 -13 -18 -6 -14 7 4 15 1 18 -9 6 -13 8 -14 15
-3 11 17 11 48 1 48 -5 0 -17 -10 -28 -22z m23 -10 c-3 -8 -6 -5 -6 6 -1 11 2
17 5 13 3 -3 4 -12 1 -19z"/>
<path d="M6140 5056 c0 -2 8 -10 18 -17 15 -13 16 -12 3 4 -13 16 -21 21 -21
13z"/>
<path d="M4100 5031 c0 -5 5 -13 10 -16 6 -3 10 -2 10 4 0 5 -4 13 -10 16 -5
3 -10 2 -10 -4z"/>
<path d="M4245 4860 c3 -5 8 -10 11 -10 2 0 4 5 4 10 0 6 -5 10 -11 10 -5 0
-7 -4 -4 -10z"/>
<path d="M4230 4818 c-3 -10 -3 -47 0 -50 7 -11 7 -45 -1 -54 -7 -8 -6 -14 1
-19 5 -3 8 -17 6 -30 -3 -14 1 -26 10 -29 8 -3 14 -11 13 -18 0 -10 -2 -10 -6
0 -2 6 -9 12 -14 12 -6 0 -6 -7 -1 -17 5 -10 8 -26 7 -35 -2 -10 1 -20 6 -24
17 -10 14 104 -4 133 -4 6 -3 14 3 18 5 3 8 18 5 33 -7 39 -23 88 -25 80z"/>
<path d="M4290 4803 c0 -6 4 -14 10 -18 5 -3 7 -12 4 -20 -3 -7 -1 -22 4 -31
8 -15 10 -12 8 12 -3 30 -25 80 -26 57z"/>
<path d="M4310 4686 c0 -2 8 -10 18 -17 15 -13 16 -12 3 4 -13 16 -21 21 -21
13z"/>
<path d="M6296 4647 c3 -10 9 -15 12 -12 3 3 0 11 -7 18 -10 9 -11 8 -5 -6z"/>
<path d="M4310 4613 c0 -6 8 -17 18 -24 16 -13 16 -13 2 6 -8 11 -16 22 -17
24 -2 2 -3 0 -3 -6z"/>
<path d="M6303 4585 c0 -8 4 -12 9 -9 5 3 6 10 3 15 -9 13 -12 11 -12 -6z"/>
<path d="M4256 4466 c-10 -16 -12 -27 -6 -31 6 -4 8 -11 4 -16 -3 -5 0 -16 6
-24 7 -8 9 -22 5 -32 -4 -10 -9 -30 -11 -45 -3 -20 0 -26 14 -23 9 1 15 9 13
16 -7 26 -8 100 -1 104 8 5 6 62 -2 71 -3 2 -13 -7 -22 -20z m18 -46 c-5 -5
-10 3 -11 18 -1 22 0 24 9 8 6 -10 6 -22 2 -26z"/>
<path d="M4373 4445 c0 -8 4 -12 9 -9 5 3 6 10 3 15 -9 13 -12 11 -12 -6z"/>
<path d="M2566 4433 c-6 -14 -5 -15 5 -6 7 7 10 15 7 18 -3 3 -9 -2 -12 -12z"/>
<path d="M6306 4423 c-6 -14 -5 -15 5 -6 7 7 10 15 7 18 -3 3 -9 -2 -12 -12z"/>
<path d="M4350 4406 c0 -2 8 -10 18 -17 15 -13 16 -12 3 4 -13 16 -21 21 -21
13z"/>
<path d="M4364 4316 c1 -8 5 -18 8 -22 4 -3 5 1 4 10 -1 8 -5 18 -8 22 -4 3
-5 -1 -4 -10z"/>
<path d="M4356 4273 c2 -6 -2 -14 -9 -17 -8 -3 -8 -5 -1 -5 6 -1 18 7 25 16 8
9 9 14 2 10 -6 -4 -13 -4 -16 0 -2 5 -2 3 -1 -4z"/>
<path d="M2490 4255 c-6 -8 -10 -20 -7 -27 3 -8 6 -6 6 5 1 10 5 16 9 13 5 -3
9 1 9 9 0 19 -2 19 -17 0z"/>
<path d="M6257 4216 c5 -23 3 -27 -8 -21 -11 6 -12 5 -1 -6 16 -18 16 -34 -1
-20 -14 11 -17 3 -17 -49 0 -20 -2 -22 -11 -10 -9 13 -10 13 -7 0 5 -25 -24
-100 -36 -93 -6 3 -8 3 -4 -2 9 -10 -10 -47 -21 -41 -4 3 -8 -1 -8 -9 0 -8 4
-12 9 -9 4 3 8 -2 8 -11 0 -9 -4 -14 -9 -11 -5 4 -7 -4 -4 -16 3 -17 2 -19 -5
-10 -7 11 -10 11 -16 -3 -3 -9 -10 -14 -15 -11 -4 3 -8 -2 -8 -12 0 -40 -4
-53 -12 -47 -6 3 -8 14 -6 25 2 12 0 18 -4 15 -5 -3 -7 -21 -5 -40 2 -22 -1
-34 -9 -32 -6 1 -11 -4 -12 -10 0 -7 -4 -12 -10 -10 -5 1 -8 7 -7 12 2 6 0 6
-5 2 -4 -5 -9 -17 -9 -28 -3 -42 -4 -44 -14 -29 -7 10 -10 11 -11 3 -1 -7 -3
-17 -4 -23 -1 -5 -3 -17 -4 -26 0 -8 -6 -12 -11 -9 -6 4 -7 11 -4 17 5 7 2 8
-5 3 -9 -5 -9 -11 -3 -17 12 -12 4 -40 -9 -32 -5 3 -7 9 -4 14 3 4 -3 14 -12
21 -15 12 -16 12 -8 -1 12 -18 13 -90 3 -90 -7 0 -13 32 -9 53 1 5 -3 6 -8 3
-6 -4 -6 -18 -1 -36 5 -18 5 -32 -1 -35 -9 -6 -13 2 -9 20 1 5 -2 6 -6 2 -11
-11 -14 -38 -3 -31 5 3 12 -2 15 -10 5 -12 18 -4 58 34 43 41 53 56 52 83 -1
23 3 31 13 29 12 -3 12 0 1 13 -13 16 -7 30 13 30 7 0 12 5 12 10 0 6 10 24
23 42 12 17 22 35 22 40 0 5 13 22 30 38 16 15 28 31 26 34 -2 3 1 17 7 31 5
14 11 30 12 35 2 17 24 67 59 135 31 61 33 68 20 95 l-13 30 6 -29z m-16 -79
c-10 -9 -11 -8 -5 6 3 10 9 15 12 12 3 -3 0 -11 -7 -18z m-101 -241 c0 -2 -8
-10 -17 -17 -16 -13 -17 -12 -4 4 13 16 21 21 21 13z m-121 -183 c-6 -7 -9
-19 -6 -27 7 -17 -54 -101 -80 -110 -15 -5 -15 -3 3 11 11 10 19 28 18 40 0
12 2 20 6 18 10 -6 41 41 43 64 0 10 7 18 14 18 9 0 10 -4 2 -14z"/>
<path d="M5982 3650 c-12 -16 -22 -32 -22 -37 0 -4 11 8 25 27 14 19 25 35 25
37 0 8 -8 0 -28 -27z"/>
<path d="M4223 4205 c0 -8 4 -12 8 -9 7 4 39 -45 40 -63 1 -17 7 -14 14 6 4
12 0 30 -9 43 -9 12 -16 19 -16 14 0 -5 -8 -2 -18 7 -15 14 -19 15 -19 2z m55
-50 c-3 -3 -9 2 -12 12 -6 14 -5 15 5 6 7 -7 10 -15 7 -18z"/>
<path d="M4523 3953 c4 -3 1 -13 -6 -22 -11 -14 -10 -14 5 -2 16 12 16 31 1
31 -4 0 -3 -3 0 -7z"/>
<path d="M2370 3935 c-7 -8 -9 -15 -6 -15 4 0 2 -10 -5 -21 -6 -12 -7 -19 -1
-15 9 6 35 66 28 66 -2 0 -9 -7 -16 -15z"/>
<path d="M2410 3925 c0 -7 30 -13 34 -7 3 4 -4 9 -15 9 -10 1 -19 0 -19 -2z"/>
<path d="M4560 3911 c0 -6 4 -13 10 -16 6 -3 7 1 4 9 -7 18 -14 21 -14 7z"/>
<path d="M2415 3880 c-20 -22 -30 -54 -13 -44 5 3 7 9 4 12 -4 3 4 16 16 29
12 13 19 23 16 23 -3 0 -13 -9 -23 -20z"/>
<path d="M4542 3895 c4 -4 2 -15 -4 -23 -17 -20 -18 -39 -2 -39 10 0 11 4 4
11 -6 6 -5 15 6 27 12 14 13 18 2 25 -7 4 -10 4 -6 -1z"/>
<path d="M4491 3866 c-9 -10 -9 -16 -1 -21 8 -5 8 -10 0 -20 -8 -9 -8 -15 0
-20 6 -3 7 -11 4 -17 -5 -7 -2 -8 6 -3 10 6 12 4 6 -11 -6 -15 -5 -16 5 -7 10
10 9 16 -4 31 -9 10 -14 22 -10 26 7 6 13 56 8 56 -2 0 -8 -6 -14 -14z"/>
<path d="M4561 3866 c-8 -10 -9 -16 -1 -21 6 -3 8 -10 6 -14 -3 -4 9 -21 26
-37 18 -16 27 -22 20 -13 -6 9 -8 20 -4 24 4 5 2 5 -4 2 -7 -4 -17 0 -24 8 -7
8 -9 15 -5 15 4 0 3 6 -4 13 -8 10 -7 17 1 25 7 7 9 12 6 12 -3 0 -11 -6 -17
-14z"/>
<path d="M4585 3861 c-3 -5 -2 -12 3 -15 5 -3 9 1 9 9 0 17 -3 19 -12 6z"/>
<path d="M4614 3836 c1 -8 5 -18 8 -22 4 -3 5 1 4 10 -1 8 -5 18 -8 22 -4 3
-5 -1 -4 -10z"/>
<path d="M4525 3800 c8 -9 13 -19 10 -22 -3 -3 3 -11 12 -19 16 -13 17 -12 4
4 -7 9 -10 17 -6 17 4 0 2 7 -5 15 -7 8 -8 15 -2 15 5 0 15 -7 22 -15 7 -8 9
-15 5 -15 -4 0 -2 -6 4 -13 6 -8 9 -16 6 -19 -3 -3 3 -11 12 -19 15 -11 16
-11 6 1 -10 10 -10 17 -1 27 7 9 8 13 1 11 -6 -2 -12 2 -13 7 -3 19 -32 44
-51 42 -16 -1 -17 -3 -4 -17z"/>
<path d="M4467 3786 c-4 -9 -15 -13 -28 -11 -17 4 -20 2 -11 -7 20 -20 40 -17
46 5 6 25 1 34 -7 13z"/>
<path d="M4335 3780 c-3 -6 1 -7 9 -4 18 7 21 14 7 14 -6 0 -13 -4 -16 -10z"/>
<path d="M4360 3759 c0 -5 -6 -7 -12 -3 -10 6 -10 5 -1 -8 7 -8 10 -18 6 -22
-4 -3 -8 -15 -10 -25 -2 -14 4 -18 22 -18 25 0 47 16 26 18 -6 1 -15 2 -21 3
-8 1 -12 8 -9 19 5 18 8 47 4 47 -3 0 -5 -5 -5 -11z"/>
<path d="M4383 3755 c0 -8 4 -12 9 -9 5 3 6 10 3 15 -9 13 -12 11 -12 -6z"/>
<path d="M4520 3749 c0 -5 -6 -7 -12 -3 -8 5 -7 1 2 -10 17 -22 21 -44 9 -52
-5 -3 -10 0 -10 5 -1 6 -2 15 -3 21 0 5 -7 15 -13 22 -18 17 -17 -3 1 -39 24
-45 29 -65 30 -115 1 -33 7 -53 21 -65 19 -18 19 -18 2 3 -16 19 -16 21 1 39
16 18 16 18 -1 6 -18 -14 -18 -13 -8 38 1 2 9 -3 19 -10 14 -11 15 -11 5 0
-12 14 -6 44 7 36 7 -4 6 24 0 33 -6 7 -5 29 2 44 4 9 4 19 0 22 -5 3 -9 0
-10 -7 0 -7 -3 -21 -6 -32 -2 -11 -5 -22 -5 -25 -1 -3 -5 2 -10 10 -6 8 -7 19
-3 25 3 5 7 19 9 30 1 11 -1 14 -3 7 -8 -17 -24 -5 -17 13 3 8 2 15 -1 15 -3
0 -6 -5 -6 -11z m20 -101 c0 -5 -4 -8 -10 -8 -5 0 -10 10 -10 23 0 18 2 19 10
7 5 -8 10 -18 10 -22z m14 -24 c-9 -13 -19 -23 -21 -21 -7 8 20 56 28 51 5 -3
1 -16 -7 -30z"/>
<path d="M4605 3751 c-3 -5 -1 -12 5 -16 6 -4 7 -11 4 -17 -4 -7 -2 -8 5 -4 8
6 9 12 2 20 -6 7 -8 16 -4 19 3 4 4 7 0 7 -3 0 -8 -4 -12 -9z"/>
<path d="M2050 3686 c0 -8 4 -17 9 -20 5 -4 7 3 4 14 -6 23 -13 26 -13 6z"/>
<path d="M4584 3675 c1 -8 8 -21 16 -28 12 -10 12 -9 2 4 -6 9 -9 18 -6 21 3
3 1 9 -4 12 -6 3 -9 -1 -8 -9z"/>
<path d="M4744 3622 c23 -26 23 -26 23 -7 0 8 -3 13 -5 10 -3 -3 -12 1 -21 7
-10 8 -9 4 3 -10z"/>
<path d="M4732 3598 c2 -7 -4 -12 -12 -10 -10 2 -6 -6 9 -22 27 -29 43 -36 18
-8 -12 13 -14 21 -6 29 8 8 8 13 0 18 -7 4 -10 1 -9 -7z"/>
<path d="M4783 3590 c2 -8 0 -23 -5 -34 -7 -12 -7 -16 0 -12 5 3 15 -1 21 -8
8 -9 8 -17 2 -20 -5 -3 -12 0 -14 6 -4 8 -6 9 -6 2 -1 -6 7 -18 17 -25 9 -7
14 -9 9 -4 -4 4 1 17 10 27 14 15 14 19 3 16 -8 -2 -14 3 -12 10 1 8 -2 11 -9
6 -8 -5 -10 -2 -7 8 4 8 2 21 -4 29 -8 12 -9 12 -5 -1z"/>
<path d="M4755 3581 c-3 -5 -2 -12 3 -15 5 -3 9 1 9 9 0 17 -3 19 -12 6z"/>
<path d="M4703 3564 c4 -6 -2 -19 -12 -28 -18 -17 -22 -38 -8 -52 3 -4 5 3 2
14 -2 11 5 28 14 36 15 14 20 14 30 3 9 -11 7 -17 -6 -28 -15 -12 -16 -12 -10
4 4 11 3 16 -4 12 -15 -10 -6 -28 15 -31 10 -1 15 0 12 3 -3 4 -1 11 4 18 7 8
2 19 -17 36 -14 13 -23 19 -20 13z"/>
<path d="M1903 3545 c0 -8 4 -12 9 -9 5 3 6 10 3 15 -9 13 -12 11 -12 -6z"/>
<path d="M4637 3554 c-3 -3 -3 -13 0 -22 4 -10 2 -13 -5 -8 -11 7 -7 -43 5
-54 3 -3 3 5 0 17 -3 13 -1 26 4 29 5 3 9 -4 9 -15 0 -11 4 -22 9 -26 6 -3 5
8 -1 27 -5 18 -10 39 -11 46 0 14 -1 14 -10 6z"/>
<path d="M4663 3543 c0 -9 4 -10 14 -2 7 6 13 12 13 14 0 1 -6 2 -13 2 -8 0
-14 -6 -14 -14z"/>
<path d="M1879 3533 c-5 -38 -5 -64 0 -67 3 -2 7 13 7 35 1 21 -1 39 -2 39 -2
0 -4 -3 -5 -7z"/>
<path d="M4595 3511 c-3 -5 0 -13 5 -16 8 -5 6 -13 -6 -26 -14 -16 -20 -17
-33 -6 -14 10 -14 10 -3 -5 13 -16 28 -18 49 -5 9 6 11 26 3 47 -1 3 -2 8 -1
13 1 10 -7 9 -14 -2z"/>
<path d="M5818 3506 c3 -6 8 -20 9 -30 6 -34 12 -30 10 6 -1 19 -7 35 -14 35
-7 0 -9 -5 -5 -11z"/>
<path d="M4573 3491 c0 -11 5 -18 9 -15 4 3 5 11 1 19 -7 21 -12 19 -10 -4z"/>
<path d="M4772 3494 c14 -16 15 -23 6 -32 -7 -7 -9 -12 -6 -12 3 0 11 6 17 13
8 11 6 18 -12 33 -22 19 -22 19 -5 -2z"/>
<path d="M4860 3506 c0 -2 8 -10 18 -17 15 -13 16 -12 3 4 -13 16 -21 21 -21
13z"/>
<path d="M4843 3485 c0 -8 3 -13 5 -10 3 3 12 -1 21 -7 10 -8 9 -4 -3 10 -23
26 -23 26 -23 7z"/>
<path d="M4969 3483 c-13 -16 -12 -17 4 -4 9 7 17 15 17 17 0 8 -8 3 -21 -13z"/>
<path d="M4815 3481 c-3 -5 -2 -12 3 -15 5 -3 9 1 9 9 0 17 -3 19 -12 6z"/>
<path d="M4919 3478 c-5 -18 -6 -38 -1 -34 7 8 12 36 6 36 -2 0 -4 -1 -5 -2z"/>
<path d="M4677 3464 c-3 -4 1 -17 9 -30 15 -22 11 -50 -5 -40 -4 3 -8 -1 -8
-9 0 -13 4 -12 19 2 17 15 23 11 19 -11 -1 -5 5 -3 14 4 8 7 13 15 10 18 -3 3
1 12 7 21 8 10 4 9 -10 -3 -12 -11 -22 -14 -22 -8 0 6 5 14 10 17 13 8 13 25
-1 25 -5 0 -8 -4 -4 -9 3 -5 1 -12 -5 -16 -5 -3 -11 -1 -11 4 -3 26 -4 30 -10
35 -3 3 -8 3 -12 0z"/>
<path d="M4743 3455 c0 -8 4 -12 9 -9 5 3 6 10 3 15 -9 13 -12 11 -12 -6z"/>
<path d="M4789 3443 c-13 -16 -12 -17 4 -4 9 7 17 15 17 17 0 8 -8 3 -21 -13z"/>
<path d="M4757 3421 c-4 -17 -3 -21 5 -13 5 5 8 16 6 23 -3 8 -7 3 -11 -10z"/>
<path d="M4874 3416 c1 -8 5 -18 8 -22 4 -3 5 1 4 10 -1 8 -5 18 -8 22 -4 3
-5 -1 -4 -10z"/>
<path d="M4909 3428 c-6 -20 -6 -39 0 -42 4 -3 7 6 7 20 0 20 -4 32 -7 22z"/>
<path d="M5679 3418 c-6 -20 -6 -39 1 -43 4 -3 7 -13 5 -23 -1 -9 0 -11 2 -4
3 6 8 12 13 12 5 0 7 -6 4 -14 -7 -17 12 -31 21 -16 4 6 1 18 -7 27 -15 19
-15 23 4 34 9 6 4 9 -15 9 -16 0 -26 4 -22 10 3 6 4 10 1 10 -3 0 -6 -1 -7 -2z
m26 -38 c3 -5 2 -10 -4 -10 -5 0 -13 5 -16 10 -3 6 -2 10 4 10 5 0 13 -4 16
-10z"/>
<path d="M4932 3385 c2 -13 -2 -19 -11 -17 -12 3 -12 0 -1 -12 7 -9 15 -16 18
-16 3 0 2 3 -1 7 -4 3 -3 11 3 17 5 7 5 17 -1 26 -8 12 -9 11 -7 -5z"/>
<path d="M4855 3381 c-3 -5 -2 -12 3 -15 5 -3 9 1 9 9 0 17 -3 19 -12 6z"/>
<path d="M4736 3363 c-6 -14 -5 -15 5 -6 7 7 10 15 7 18 -3 3 -9 -2 -12 -12z"/>
<path d="M4883 3365 c0 -8 4 -12 9 -9 5 3 6 10 3 15 -9 13 -12 11 -12 -6z"/>
<path d="M5004 3351 c7 -9 12 -24 11 -34 -2 -9 0 -15 5 -12 7 4 7 27 0 45 -1
3 -2 8 -2 11 1 3 -6 6 -14 6 -12 0 -12 -3 0 -16z"/>
<path d="M5662 3350 c0 -14 2 -19 5 -12 2 6 2 18 0 25 -3 6 -5 1 -5 -13z"/>
<path d="M4954 3346 c1 -8 5 -18 8 -22 4 -3 5 1 4 10 -1 8 -5 18 -8 22 -4 3
-5 -1 -4 -10z"/>
<path d="M5390 3315 c0 -5 5 -17 10 -25 5 -8 10 -10 10 -5 0 6 -5 17 -10 25
-5 8 -10 11 -10 5z"/>
<path d="M4843 3293 c0 -9 4 -10 14 -2 7 6 13 12 13 14 0 1 -6 2 -13 2 -8 0
-14 -6 -14 -14z"/>
<path d="M5186 3298 c3 -5 10 -6 15 -3 13 9 11 12 -6 12 -8 0 -12 -4 -9 -9z"/>
<path d="M5330 3303 c0 -6 5 -15 10 -18 8 -5 8 -11 0 -20 -8 -10 -8 -15 0 -20
7 -4 10 -15 7 -25 -2 -9 3 -27 13 -39 l16 -23 19 29 c11 15 20 31 20 35 0 17
15 19 15 2 0 -16 2 -17 10 -4 5 8 14 16 20 16 21 3 22 4 10 19 -10 12 -16 12
-34 3 -11 -7 -25 -11 -29 -10 -5 1 -6 -2 -3 -7 4 -5 1 -13 -5 -17 -8 -5 -10 1
-7 19 3 14 2 31 -2 37 -4 6 -7 -3 -8 -21 0 -17 -5 -36 -10 -41 -6 -6 -8 6 -6
31 1 23 -1 39 -6 36 -5 -3 -13 3 -19 12 -6 10 -11 13 -11 6z m30 -49 c0 -8 -5
-12 -10 -9 -6 4 -8 11 -5 16 9 14 15 11 15 -7z m104 -2 c2 -4 -5 -9 -17 -9
-17 -2 -19 0 -7 7 18 12 18 12 24 2z m-70 -54 c-13 -14 -20 -15 -31 -7 -15 13
-18 23 -4 14 5 -3 12 -2 15 3 3 5 12 9 21 9 13 0 13 -3 -1 -19z"/>
<path d="M5617 3296 c-3 -8 -2 -18 3 -21 13 -8 20 9 11 24 -6 10 -10 9 -14 -3z"/>
<path d="M5163 3285 c0 -8 4 -12 9 -9 5 3 6 10 3 15 -9 13 -12 11 -12 -6z"/>
<path d="M4716 3255 c2 -11 4 -24 5 -30 0 -5 4 -1 9 10 7 15 9 16 9 4 1 -9 -7
-23 -16 -30 -9 -8 -14 -9 -11 -4 4 6 1 20 -5 32 -11 19 -13 19 -27 5 -13 -14
-12 -15 3 -9 13 5 17 1 18 -16 1 -12 1 -25 0 -29 -2 -12 17 -10 24 2 4 6 12 7
18 3 7 -4 15 -8 20 -8 4 0 7 -3 7 -7 0 -5 0 -11 0 -14 0 -4 -6 -2 -12 3 -12 8
-21 9 -44 4 -4 0 -1 -8 6 -17 8 -8 9 -14 3 -12 -6 2 -11 -1 -12 -7 -1 -5 3
-10 8 -10 5 0 13 -3 17 -7 11 -11 35 12 27 26 -4 6 0 5 9 -2 10 -8 19 -9 22
-3 4 5 2 12 -2 15 -5 3 -8 30 -7 60 1 30 0 55 -4 54 -3 0 -8 1 -11 2 -18 7
-39 7 -35 0 3 -5 1 -11 -4 -14 -5 -4 -11 -1 -14 6 -2 7 -3 4 -1 -7z m63 -24
c0 -12 -2 -12 -10 4 -8 17 -9 16 -6 -7 2 -15 1 -25 -3 -23 -10 6 -19 53 -12
60 9 8 32 -16 31 -34z m-25 -103 c-9 -14 -23 2 -17 18 4 12 8 13 14 3 4 -7 5
-17 3 -21z"/>
<path d="M5181 3266 c-9 -11 -9 -16 1 -22 7 -4 10 -4 6 1 -4 4 -3 14 3 22 6 7
9 13 6 13 -2 0 -10 -6 -16 -14z"/>
<path d="M1880 3246 c0 -2 8 -10 18 -17 15 -13 16 -12 3 4 -13 16 -21 21 -21
13z"/>
<path d="M4800 3243 c0 -15 18 -35 23 -27 3 5 -1 15 -9 22 -8 7 -14 9 -14 5z"/>
<path d="M4915 3240 c-3 -6 -10 -8 -15 -5 -5 3 -12 0 -16 -6 -4 -7 -3 -9 4 -5
6 3 14 2 17 -4 4 -6 2 -9 -3 -8 -6 2 -10 -1 -11 -7 -1 -5 4 -11 9 -11 6 -1 12
-3 15 -4 3 -1 9 -3 14 -4 5 0 13 -5 18 -10 5 -5 3 -6 -4 -2 -8 4 -13 2 -13 -6
0 -9 -3 -9 -10 2 -5 8 -10 11 -10 6 0 -5 -7 -3 -15 4 -8 7 -15 8 -15 2 0 -27
49 -36 85 -15 17 10 18 14 6 25 -12 11 -13 10 -6 -2 6 -11 3 -10 -12 3 -11 9
-22 15 -24 12 -3 -2 -5 5 -6 16 -2 19 -1 19 16 -3 l18 -22 11 21 c10 18 9 21
-6 18 -9 -1 -22 2 -29 7 -7 5 -14 5 -18 -2z"/>
<path d="M5005 3231 c-3 -5 -2 -12 3 -15 5 -3 9 1 9 9 0 17 -3 19 -12 6z"/>
<path d="M4852 3210 c-9 -14 -8 -21 3 -30 8 -7 15 -9 16 -4 0 5 2 17 4 26 5
25 -9 30 -23 8z"/>
<path d="M1916 3211 c-3 -5 1 -14 8 -20 10 -9 16 -9 21 -1 4 6 1 9 -7 8 -7 -2
-12 3 -10 10 2 14 -4 16 -12 3z"/>
<path d="M5276 3173 c-6 -14 -5 -15 5 -6 7 7 10 15 7 18 -3 3 -9 -2 -12 -12z"/>
<path d="M5150 3165 c-7 -8 -16 -13 -20 -10 -5 3 -11 1 -14 -4 -4 -5 -2 -12 3
-15 5 -4 12 -2 16 4 4 6 10 8 15 5 5 -3 11 -1 15 4 3 5 14 8 25 6 11 -2 22 0
25 5 3 4 -3 7 -12 5 -10 -1 -23 2 -29 6 -7 6 -16 4 -24 -6z"/>
<path d="M2027 3132 c-6 -9 24 -46 41 -49 7 -2 12 2 12 7 0 6 -7 10 -16 10
-14 0 -15 2 -3 18 13 15 12 16 -3 3 -16 -12 -22 -9 -19 12 1 9 -6 9 -12 -1z"/>
<path d="M3906 3130 c5 -8 9 -19 9 -25 0 -15 38 -12 43 4 3 8 -1 12 -9 9 -8
-3 -23 2 -33 11 -16 13 -18 13 -10 1z"/>
<path d="M3986 3125 c-11 -8 -17 -17 -14 -20 2 -3 13 4 23 15 21 23 18 25 -9
5z"/>
<path d="M2611 3105 c-1 -15 -3 -17 -10 -7 -7 11 -9 11 -13 0 -3 -7 -6 -17 -6
-22 0 -5 -6 -13 -14 -17 -7 -5 -8 -9 -2 -9 6 0 19 9 29 20 14 16 21 18 33 8 7
-7 21 -13 30 -15 9 -1 22 -10 29 -19 7 -10 13 -14 13 -10 0 5 7 2 16 -5 33
-27 93 -14 65 14 -9 9 -11 8 -6 -5 8 -21 -22 -19 -36 3 -7 12 -9 12 -9 0 0
-14 -15 -6 -15 7 -1 18 -17 30 -37 24 -14 -3 -19 -1 -14 6 3 6 1 14 -5 18 -7
4 -9 3 -5 -4 3 -6 2 -13 -4 -17 -5 -3 -10 1 -10 10 0 9 -4 14 -9 10 -5 -3 -12
3 -14 12 -4 15 -5 15 -6 -2z m94 -45 c3 -5 1 -10 -4 -10 -6 0 -11 5 -11 10 0
6 2 10 4 10 3 0 8 -4 11 -10z"/>
<path d="M3145 3110 c-4 -6 -10 -8 -14 -6 -3 3 -7 -11 -7 -29 0 -19 4 -31 10
-28 5 4 7 -1 3 -10 -8 -21 17 -42 31 -25 17 21 18 24 4 40 -10 13 -9 18 3 28
8 7 15 18 15 24 0 6 -5 3 -11 -7 -6 -9 -14 -15 -19 -12 -9 5 -8 -13 1 -30 8
-16 5 -35 -6 -35 -5 0 -10 6 -11 13 0 6 -2 15 -4 20 -11 29 4 62 23 50 6 -3 7
-1 3 5 -9 15 -13 15 -21 2z"/>
<path d="M3738 3109 c-4 -11 1 -15 17 -15 15 0 21 5 18 14 -4 10 -8 11 -13 2
-6 -9 -9 -9 -12 1 -3 10 -6 9 -10 -2z"/>
<path d="M3196 3085 c-10 -15 -12 -26 -6 -30 6 -4 9 -2 8 3 -2 6 2 10 7 11 6
1 10 -3 10 -8 0 -5 3 -12 7 -16 3 -4 5 0 4 9 -1 8 -5 19 -9 22 -17 17 -5 25
12 10 19 -17 19 -17 17 0 -4 26 -33 25 -50 -1z"/>
<path d="M4220 3106 c0 -2 8 -10 18 -17 15 -13 16 -12 3 4 -13 16 -21 21 -21
13z"/>
<path d="M3449 3098 c-5 -18 -6 -38 -1 -34 7 8 12 36 6 36 -2 0 -4 -1 -5 -2z"/>
<path d="M2464 3078 c-4 -7 -3 -8 4 -4 7 4 12 1 12 -8 0 -26 -12 -46 -24 -39
-6 3 -7 2 -3 -3 4 -4 18 -9 31 -10 19 -1 22 3 18 19 -4 14 -2 18 7 12 10 -6
11 -3 2 13 -13 24 -38 35 -47 20z"/>
<path d="M2155 3069 c-4 -6 -5 -12 -2 -15 2 -3 7 2 10 11 7 17 1 20 -8 4z"/>
<path d="M3533 3070 c2 -8 9 -15 15 -15 7 0 12 -4 11 -10 -1 -5 -5 -9 -9 -8
-5 1 -7 -5 -5 -15 2 -9 4 -20 4 -24 1 -5 8 -8 17 -8 12 0 15 7 12 25 -4 17 0
29 11 36 14 9 14 10 -1 5 -10 -3 -22 2 -27 12 -8 14 -10 14 -11 2 0 -13 -1
-13 -11 0 -9 13 -10 13 -6 0z m37 -56 c0 -8 -5 -12 -10 -9 -6 4 -8 11 -5 16 9
14 15 11 15 -7z"/>
<path d="M3496 3058 c3 -5 10 -6 15 -3 13 9 11 12 -6 12 -8 0 -12 -4 -9 -9z"/>
<path d="M2215 3051 c-3 -5 -2 -12 3 -15 5 -3 9 1 9 9 0 17 -3 19 -12 6z"/>
<path d="M3093 3039 c-2 -23 3 -25 10 -4 4 8 3 16 -1 19 -4 3 -9 -4 -9 -15z"/>
<path d="M2253 3035 c-7 -8 -9 -16 -4 -19 5 -3 12 1 15 10 8 22 4 25 -11 9z"/>
<path d="M2533 3035 c0 -8 4 -12 9 -9 5 3 6 10 3 15 -9 13 -12 11 -12 -6z"/>
<path d="M3434 3028 l-19 -23 23 19 c21 18 27 26 19 26 -2 0 -12 -10 -23 -22z"/>
<path d="M3193 3033 c4 -3 1 -13 -6 -22 -11 -14 -10 -14 5 -2 16 12 16 31 1
31 -4 0 -3 -3 0 -7z"/>
<path d="M3216 3013 c-6 -14 -5 -15 5 -6 7 7 10 15 7 18 -3 3 -9 -2 -12 -12z"/>
<path d="M3520 3011 c0 -6 4 -13 10 -16 6 -3 7 1 4 9 -7 18 -14 21 -14 7z"/>
<path d="M4305 4409 c-4 -6 -5 -12 -2 -15 2 -3 7 2 10 11 7 17 1 20 -8 4z"/>
<path d="M5542 3268 c-7 -7 -12 -17 -12 -22 0 -6 5 -3 11 7 6 9 14 15 20 12 5
-4 9 -1 9 4 0 14 -13 14 -28 -1z"/>
<path d="M2942 5565 c-36 -30 -43 -75 -18 -111 20 -29 367 -224 398 -224 57 0
100 87 66 133 -17 22 -355 217 -388 224 -19 3 -35 -3 -58 -22z"/>
<path d="M6940 5582 c-62 -28 -345 -200 -361 -220 -10 -14 -19 -36 -19 -49 0
-31 51 -83 81 -83 25 0 348 179 387 213 14 13 22 32 22 53 0 46 -9 63 -41 79
-30 16 -45 17 -69 7z"/>
<path d="M8331 5474 c0 -11 3 -14 6 -6 3 7 2 16 -1 19 -3 4 -6 -2 -5 -13z"/>
<path d="M401 5224 c0 -11 3 -14 6 -6 3 7 2 16 -1 19 -3 4 -6 -2 -5 -13z"/>
<path d="M8432 4985 c0 -16 2 -22 5 -12 2 9 2 23 0 30 -3 6 -5 -1 -5 -18z"/>
<path d="M352 4925 c0 -16 2 -22 5 -12 2 9 2 23 0 30 -3 6 -5 -1 -5 -18z"/>
<path d="M8442 4920 c0 -14 2 -19 5 -12 2 6 2 18 0 25 -3 6 -5 1 -5 -13z"/>
<path d="M332 4730 c0 -14 2 -19 5 -12 2 6 2 18 0 25 -3 6 -5 1 -5 -13z"/>
<path d="M8462 4725 c0 -16 2 -22 5 -12 2 9 2 23 0 30 -3 6 -5 -1 -5 -18z"/>
<path d="M8473 4640 c0 -25 2 -35 4 -22 2 12 2 32 0 45 -2 12 -4 2 -4 -23z"/>
<path d="M322 4625 c0 -16 2 -22 5 -12 2 9 2 23 0 30 -3 6 -5 -1 -5 -18z"/>
<path d="M6865 4428 c-52 -28 -62 -92 -20 -133 l24 -25 221 0 221 0 24 25 c41
40 33 105 -16 130 -35 19 -421 21 -454 3z"/>
<path d="M321 4134 c0 -11 3 -14 6 -6 3 7 2 16 -1 19 -3 4 -6 -2 -5 -13z"/>
<path d="M8472 4130 c0 -14 2 -19 5 -12 2 6 2 18 0 25 -3 6 -5 1 -5 -13z"/>
<path d="M333 4055 c0 -33 2 -45 4 -27 2 18 2 45 0 60 -2 15 -4 0 -4 -33z"/>
<path d="M8463 4050 c0 -30 2 -43 4 -27 2 15 2 39 0 55 -2 15 -4 2 -4 -28z"/>
<path d="M352 3845 c3 -5 9 -39 12 -75 4 -35 10 -67 13 -70 3 -3 2 27 -2 65
-4 39 -12 75 -17 80 -7 7 -9 7 -6 0z"/>
<path d="M8437 3843 c-3 -5 -7 -39 -11 -78 -7 -85 0 -75 12 18 8 65 8 75 -1
60z"/>
<path d="M8392 3570 c0 -14 2 -19 5 -12 2 6 2 18 0 25 -3 6 -5 1 -5 -13z"/>
<path d="M418 3483 c20 -94 33 -101 14 -9 -8 42 -18 76 -22 76 -4 0 0 -30 8
-67z"/>
<path d="M6589 3451 c-16 -16 -29 -39 -29 -50 0 -48 23 -69 178 -159 205 -119
218 -125 248 -118 59 15 85 89 47 134 -26 30 -365 222 -392 222 -12 0 -36 -13
-52 -29z"/>
<path d="M8332 3328 c-12 -39 -20 -73 -17 -76 5 -6 7 0 30 82 23 84 12 80 -13
-6z"/>
<path d="M451 3359 c-1 -9 4 -31 10 -50 6 -19 13 -40 15 -48 3 -8 6 -12 9 -10
2 3 -4 32 -14 64 -11 33 -20 53 -20 44z"/>
<path d="M530 3092 c0 -19 41 -127 52 -137 8 -7 9 -5 3 10 -4 11 -16 46 -27
78 -18 53 -28 70 -28 49z"/>
<path d="M8256 3085 c-3 -9 -6 -26 -5 -38 1 -16 4 -12 10 12 10 34 6 55 -5 26z"/>
<path d="M8194 2915 c-7 -19 -21 -51 -29 -72 -25 -59 -8 -51 19 10 13 30 27
64 31 76 11 35 -5 24 -21 -14z"/>
<path d="M600 2910 c0 -22 33 -110 42 -110 11 0 11 -1 -17 66 -13 32 -24 52
-25 44z"/>
<path d="M5925 2772 c-35 -7 -65 -43 -65 -78 0 -46 196 -384 234 -402 53 -26
116 12 116 71 0 23 -30 84 -104 212 -107 186 -128 209 -181 197z"/>
<path d="M8086 2665 c-3 -8 -1 -15 4 -15 6 0 10 7 10 15 0 8 -2 15 -4 15 -2 0
-6 -7 -10 -15z"/>
<path d="M710 2642 c0 -18 39 -86 40 -69 0 10 -7 31 -15 47 -15 30 -25 38 -25
22z"/>
<path d="M4945 2508 c-43 -23 -45 -32 -45 -261 0 -123 4 -226 10 -237 29 -53
128 -40 149 20 15 43 15 386 0 429 -11 30 -52 61 -81 61 -7 0 -22 -6 -33 -12z"/>
<path d="M787 2483 c16 -42 69 -127 82 -131 8 -3 3 13 -13 39 -15 24 -35 59
-43 77 -17 33 -37 45 -26 15z"/>
<path d="M7976 2445 c-17 -30 -27 -57 -24 -61 4 -3 21 21 37 55 39 76 27 81
-13 6z"/>
<path d="M7889 2298 c-17 -29 -38 -63 -47 -75 -9 -14 -10 -23 -3 -23 9 0 59
71 90 128 24 45 -8 20 -40 -30z"/>
<path d="M900 2297 c0 -22 47 -97 61 -97 5 0 7 6 3 13 -44 72 -64 98 -64 84z"/>
<path d="M7763 2102 c-18 -25 -30 -48 -28 -51 8 -7 36 21 51 51 25 49 11 49
-23 0z"/>
<path d="M1050 2065 c0 -8 4 -15 10 -15 5 0 7 7 4 15 -4 8 -8 15 -10 15 -2 0
-4 -7 -4 -15z"/>
<path d="M7630 1921 c-7 -15 -7 -21 0 -21 12 0 25 28 17 36 -3 3 -10 -4 -17
-15z"/>
<path d="M1177 1876 c10 -13 20 -20 21 -15 7 17 -7 39 -23 39 -14 0 -14 -3 2
-24z"/>
<path d="M1301 1723 c52 -58 49 -56 49 -35 0 21 -39 62 -60 62 -9 0 -5 -9 11
-27z"/>
<path d="M1452 1557 c29 -29 44 -38 46 -29 5 19 -47 72 -70 72 -14 0 -8 -10
24 -43z"/>
<path d="M7350 1585 c0 -9 6 -12 15 -9 8 4 15 10 15 15 0 5 -7 9 -15 9 -8 0
-15 -7 -15 -15z"/>
<path d="M1560 1441 c0 -5 7 -11 15 -15 8 -3 15 -13 15 -21 0 -9 4 -14 9 -10
6 3 8 -4 6 -15 -2 -11 0 -18 6 -15 8 5 13 -9 7 -18 -2 -2 10 -21 26 -42 16
-21 25 -36 20 -33 -5 4 -9 -19 -10 -53 0 -32 -3 -61 -5 -63 -2 -2 -24 -5 -49
-7 -25 -1 -49 -6 -55 -10 -5 -4 -13 -8 -17 -8 -5 -1 -8 -2 -8 -3 -1 -2 -5 -20
-9 -40 -5 -21 -5 -38 -1 -38 5 0 10 15 12 33 2 20 8 31 16 29 8 -1 11 2 6 9
-5 8 -3 9 6 4 8 -5 11 -4 7 2 -3 5 0 10 8 10 13 0 13 -3 1 -16 -7 -9 -12 -24
-11 -33 2 -10 -1 -20 -5 -23 -5 -3 -7 3 -5 15 2 11 0 22 -6 25 -5 4 -10 -8
-10 -24 -2 -44 -3 -48 -13 -58 -5 -5 -6 -3 -2 5 4 6 2 12 -3 12 -6 0 -11 -3
-11 -7 1 -22 21 -30 83 -32 l67 -2 0 75 0 76 60 0 c33 0 61 -4 61 -10 1 -5 2
-20 3 -32 1 -14 7 -22 16 -20 11 3 11 0 0 -12 -14 -18 -21 -21 -17 -7 1 5 -2
8 -8 8 -5 -1 -9 -10 -9 -19 1 -10 -3 -15 -7 -12 -5 3 -8 -5 -6 -18 2 -23 2
-23 -68 -27 -24 -1 -25 -3 -25 -76 l0 -75 -54 0 c-38 0 -56 -4 -59 -15 -4 -8
-2 -17 4 -20 5 -4 8 -1 7 6 -3 15 39 21 48 7 3 -4 9 -6 14 -3 4 3 3 -6 -3 -19
-8 -16 -14 -20 -19 -13 -4 6 -2 14 4 18 7 4 7 9 -1 13 -6 4 -11 1 -11 -6 0 -9
-3 -9 -10 2 -7 12 -9 10 -7 -7 0 -12 4 -20 8 -17 4 2 10 -3 13 -12 4 -9 9 -14
13 -10 4 3 16 -3 29 -14 20 -19 21 -20 21 -3 0 10 1 35 2 56 l1 37 56 0 c42 0
60 -5 70 -17 12 -15 13 -15 8 -2 -3 10 2 19 13 23 13 5 15 4 7 -4 -6 -6 -9
-38 -6 -80 4 -76 7 -73 -60 -73 -10 0 -15 -4 -12 -8 3 -5 10 -7 15 -4 5 4 9 0
9 -7 0 -9 3 -9 10 2 9 13 10 13 10 0 0 -13 1 -13 11 0 9 12 10 11 6 -8 -3 -12
-1 -20 4 -16 5 3 9 14 9 25 0 17 7 19 74 19 50 0 76 4 78 12 3 7 3 -15 0 -48
-3 -43 0 -64 8 -69 8 -5 11 -4 7 2 -3 5 0 10 8 10 11 0 12 -5 3 -21 -10 -20
-10 -20 8 -4 18 16 20 15 41 -6 22 -23 58 -32 46 -12 -4 6 1 5 10 -3 15 -12
17 -10 18 25 1 22 1 46 0 54 -2 9 4 6 14 -8 10 -13 21 -19 28 -15 24 15 35 11
30 -11 -5 -21 -5 -21 11 -1 l16 20 -7 -20 c-6 -18 -5 -19 11 -6 15 13 18 12
23 -9 6 -22 7 -23 14 -4 6 16 8 15 8 -8 1 -25 5 -28 36 -28 49 0 48 0 70 -18
16 -14 17 -14 8 -1 -11 13 -9 15 9 14 16 -1 22 -9 25 -31 5 -44 12 -57 27 -51
8 3 23 -1 34 -9 15 -10 23 -11 28 -3 5 9 11 6 21 -6 9 -14 13 -15 13 -4 0 11
2 12 9 0 10 -16 20 -3 23 33 2 17 6 22 14 16 6 -6 14 -7 17 -3 4 3 7 0 7 -8 0
-11 2 -11 10 1 7 11 10 11 10 2 0 -7 5 -10 10 -7 6 3 10 0 10 -7 0 -11 2 -10
9 0 6 11 10 10 15 -3 5 -14 9 -15 21 -5 16 13 20 7 27 -35 3 -17 12 -20 73
-23 39 -2 72 -8 75 -13 3 -5 17 -11 30 -13 14 -2 27 -5 30 -6 3 -1 18 -1 34 0
21 1 26 -2 20 -12 -6 -10 -5 -11 8 -1 8 7 18 9 23 5 4 -4 6 5 3 20 -3 16 -1
25 4 21 6 -3 27 -7 47 -10 20 -2 43 -7 51 -10 8 -3 23 -5 33 -4 9 1 17 -4 17
-13 0 -21 9 -25 71 -31 30 -4 60 -8 67 -10 6 -3 12 3 12 11 0 13 10 14 63 9
34 -4 68 -7 75 -8 6 0 12 -6 12 -14 0 -7 6 -13 13 -14 6 0 40 -3 75 -5 37 -4
62 -2 62 4 0 5 16 8 35 6 19 -2 51 -6 70 -8 20 -2 41 -8 48 -14 15 -12 147
-21 147 -9 0 11 143 5 151 -7 9 -11 149 -18 149 -7 0 4 34 7 75 7 41 -1 75 -3
75 -6 0 -3 34 -6 75 -7 41 -1 75 1 75 5 0 4 34 8 75 10 44 2 75 -1 75 -7 0
-11 135 -5 154 6 22 14 25 14 209 9 54 -2 80 1 85 10 9 16 152 30 152 15 0 -7
18 -9 53 -5 28 4 60 7 70 8 10 0 21 6 25 12 4 7 24 15 45 18 20 3 53 9 72 12
27 4 35 2 35 -10 0 -12 8 -14 38 -10 21 3 54 6 72 8 24 2 36 9 41 24 5 12 16
23 26 23 10 1 40 3 67 5 27 1 52 6 55 11 3 5 13 8 21 8 8 -1 23 3 34 8 14 7
17 6 10 -5 -6 -11 -5 -11 9 1 9 7 17 10 17 7 0 -4 10 -2 21 5 17 9 20 8 13 -3
-6 -11 -5 -11 9 1 15 12 17 11 17 -8 0 -21 -4 -22 -62 -21 -87 2 -88 2 -88
-15 0 -12 10 -14 53 -9 57 7 60 8 97 17 14 4 49 9 78 10 59 4 71 12 74 48 1
14 8 26 15 26 6 0 10 -5 7 -11 -3 -6 1 -3 9 7 11 14 16 15 20 5 4 -11 6 -11 6
0 1 7 6 10 11 7 6 -3 10 0 10 7 0 9 3 9 10 -2 9 -13 10 -13 10 0 0 13 1 13 10
0 8 -12 10 -12 10 5 0 15 2 17 9 6 7 -11 9 -11 14 0 3 8 6 -1 6 -20 1 -26 4
-32 17 -27 15 6 15 4 3 -11 -11 -15 -10 -15 9 1 12 11 22 15 22 10 0 -5 5 -2
10 6 7 11 10 12 10 2 0 -10 4 -10 16 2 12 13 20 14 37 4 20 -10 21 -10 8 6
-12 14 -12 16 4 10 15 -6 17 -2 14 34 -3 23 0 38 5 35 5 -4 40 -5 78 -4 55 2
68 -1 68 -13 0 -20 17 -29 26 -15 5 8 3 9 -6 4 -9 -5 -11 -4 -6 4 6 8 12 9 20
2 7 -6 16 -8 19 -4 15 14 6 23 -23 23 -27 0 -29 2 -28 36 1 27 4 32 10 20 10
-18 28 -13 28 7 0 7 -4 6 -10 -3 -5 -8 -10 -10 -10 -4 0 6 8 18 17 25 11 10
14 10 9 2 -4 -8 -2 -13 4 -13 6 0 8 -5 4 -12 -5 -9 -2 -8 10 1 9 8 14 21 11
30 -3 11 0 9 11 -4 16 -20 16 -20 11 2 -4 17 -1 21 14 18 12 -3 19 2 20 13 1
32 18 -21 18 -59 1 -23 7 -39 16 -42 16 -7 29 8 21 22 -7 10 13 9 31 -2 6 -4
15 -2 19 4 5 8 3 9 -7 4 -11 -6 -12 -5 -2 5 15 16 46 23 37 9 -3 -5 -10 -6
-16 -3 -7 4 -8 2 -4 -5 6 -8 12 -9 20 -2 7 6 16 8 20 4 4 -4 4 1 0 11 -5 14
-4 17 4 12 8 -5 12 5 12 33 0 41 -3 44 -42 44 -10 0 -18 4 -18 9 0 6 7 8 15 4
9 -3 15 0 15 10 0 9 -5 12 -12 8 -7 -4 -4 2 6 14 11 12 22 22 25 22 3 0 0 -5
-6 -11 -6 -6 -9 -18 -5 -27 5 -13 7 -12 14 4 6 16 7 15 5 -6 -2 -24 0 -25 70
-26 40 -1 79 -7 87 -13 10 -8 16 -9 21 -1 4 6 1 9 -7 8 -10 -2 -14 18 -18 77
-5 74 -7 80 -27 80 -12 0 -25 4 -30 9 -4 5 -3 6 3 3 16 -9 24 28 10 44 -9 11
-8 11 5 1 21 -15 32 -4 17 17 -10 14 -10 14 2 3 8 -7 15 -27 15 -45 l0 -32 78
-3 c51 -2 77 -7 78 -15 1 -7 1 -24 1 -39 1 -15 4 -25 8 -23 5 3 6 15 3 28 -5
21 -5 21 9 3 12 -15 17 -16 23 -6 5 9 4 11 -3 6 -7 -4 -12 -2 -12 3 0 10 14
15 32 12 4 0 5 6 2 14 -4 9 -19 15 -35 15 l-29 0 0 75 0 75 36 0 c25 0 33 4
28 13 -6 10 -4 10 7 0 16 -16 29 -17 29 -2 0 5 -5 7 -10 4 -6 -4 -9 -1 -8 7 2
7 -2 12 -8 11 -6 -1 -11 4 -11 12 0 8 4 12 9 9 10 -6 11 10 1 19 -3 4 -11 2
-18 -3 -8 -7 -12 -5 -12 5 0 8 5 11 10 8 6 -4 8 1 4 11 -4 10 -7 20 -7 22 0 3
-4 3 -8 0 -5 -3 -9 2 -9 11 0 13 4 12 18 -6 12 -15 19 -17 23 -9 3 7 3 2 0
-12 -4 -19 -3 -21 5 -10 8 12 10 11 10 -5 -1 -27 5 -46 19 -70 11 -19 12 -19
8 5 -2 14 1 31 7 38 6 7 6 12 1 11 -20 -4 -35 2 -29 11 3 5 -1 23 -10 40 -17
33 -28 41 -18 13 6 -17 5 -17 -14 0 -11 9 -27 17 -36 17 -14 0 -17 -12 -17
-75 l0 -75 -49 1 c-43 1 -49 4 -46 21 2 10 0 16 -6 13 -13 -8 -11 9 2 22 8 8
7 13 -2 18 -7 5 -10 4 -5 -3 3 -6 2 -13 -3 -16 -5 -4 -12 4 -14 16 -2 13 -3
10 -2 -7 1 -16 -1 -39 -5 -49 -6 -19 -7 -19 -12 2 -4 12 -2 20 3 16 5 -3 9 0
9 5 0 6 -4 11 -8 11 -10 0 -8 62 3 80 5 8 4 11 -3 6 -6 -3 -14 3 -17 15 -6 17
-9 19 -17 8 -6 -10 -7 -6 -3 11 4 14 12 30 18 35 7 7 8 6 3 -3 -4 -7 -4 -21
-1 -33 6 -18 14 -20 78 -17 77 3 86 12 60 54 -7 11 -10 24 -6 29 5 4 2 4 -6 0
-11 -6 -13 -4 -7 11 5 14 4 16 -4 8 -9 -9 -8 -18 4 -36 13 -20 14 -25 2 -25
-8 0 -12 6 -8 15 3 9 1 13 -5 9 -11 -7 -14 20 -6 43 12 31 10 36 -15 38 -33 3
-40 11 -22 22 8 6 11 10 6 10 -5 0 -1 10 10 22 53 61 41 56 -46 -17 -606 -512
-1262 -822 -1995 -945 -276 -46 -380 -54 -685 -54 -305 0 -409 8 -685 54 -729
122 -1409 443 -1990 941 -49 42 -99 86 -109 98 -19 21 -56 29 -56 12z m134
-123 c-2 -3 2 -9 8 -11 7 -3 -1 -6 -17 -6 -20 -1 -34 6 -43 20 -8 12 -9 18 -3
14 7 -4 11 3 11 17 l0 23 24 -25 c13 -14 22 -28 20 -32z m5401 -297 c3 -5 1
-12 -5 -16 -5 -3 -10 1 -10 9 0 18 6 21 15 7z m-48 -60 c0 -11 -5 -18 -9 -15
-4 3 -5 11 -1 19 7 21 12 19 10 -4z m203 -125 c0 -2 -7 -6 -15 -10 -8 -3 -15
-1 -15 4 0 6 7 10 15 10 8 0 15 -2 15 -4z m-5627 -43 c-4 -10 -2 -14 4 -10 5
3 10 -1 10 -9 0 -13 -2 -13 -15 0 -8 8 -11 19 -8 25 11 17 16 13 9 -6z m5205
-88 c-3 -3 -9 2 -12 12 -6 14 -5 15 5 6 7 -7 10 -15 7 -18z m-4828 9 c0 -8
-19 -13 -24 -6 -3 5 1 9 9 9 8 0 15 -2 15 -3z m138 -89 c-3 -3 -9 2 -12 12 -6
14 -5 15 5 6 7 -7 10 -15 7 -18z m-87 -52 c13 -16 12 -17 -3 -4 -10 7 -18 15
-18 17 0 8 8 3 21 -13z m824 -154 c-6 10 -4 12 5 6 7 -4 26 -9 42 -10 50 -4
41 -12 -17 -14 -45 -1 -55 1 -55 15 0 14 2 15 17 3 14 -12 16 -12 8 0z"/>
<path d="M7200 1418 c1 -32 1 -32 13 -10 7 12 15 20 18 17 3 -3 6 2 6 10 0 8
-9 15 -19 15 -14 0 -18 -8 -18 -32z"/>
<path d="M1739 1126 c15 -18 1 -28 -18 -14 -10 8 -9 4 3 -10 17 -20 15 -26 -6
-23 -4 0 -5 -11 -2 -25 3 -16 1 -23 -6 -19 -6 4 -7 0 -3 -10 4 -12 8 -13 13
-5 4 7 10 8 12 4 3 -5 3 -3 1 5 -2 7 2 20 8 27 6 8 8 14 4 14 -5 0 -1 8 7 18
19 23 17 44 -5 48 -14 2 -15 -1 -8 -10z"/>
<path d="M1475 989 c-4 -6 -3 -15 3 -21 13 -13 4 -40 -12 -31 -6 3 -3 -3 7
-14 9 -11 15 -23 12 -26 -3 -4 -2 -5 2 -2 4 3 8 26 8 51 2 44 -7 64 -20 43z"/>
<path d="M7027 893 c-4 -3 -7 -13 -7 -22 1 -13 3 -13 11 2 11 19 8 33 -4 20z"/>
<path d="M6710 641 c0 -6 4 -13 10 -16 6 -3 7 1 4 9 -7 18 -14 21 -14 7z"/>
<path d="M2206 583 c-6 -14 -5 -15 5 -6 7 7 10 15 7 18 -3 3 -9 -2 -12 -12z"/>
<path d="M2110 545 c0 -2 8 -9 17 -16 11 -10 14 -10 9 -1 -9 15 6 16 22 0 15
-15 53 -18 46 -4 -3 6 2 2 10 -8 12 -15 16 -16 16 -5 0 12 2 12 10 -1 8 -12
10 -9 10 13 l0 28 -70 -2 c-38 -1 -70 -3 -70 -4z m80 -11 c0 -8 -19 -13 -24
-6 -3 5 1 9 9 9 8 0 15 -2 15 -3z"/>
<path d="M6670 540 c0 -5 7 -7 15 -4 8 4 15 8 15 10 0 2 -7 4 -15 4 -8 0 -15
-4 -15 -10z"/>
</g>
</svg>
